<?xml version="1.0" encoding="UTF-8" standalone="no"?>
<!-- Created with Inkscape (http://www.inkscape.org/) -->

<svg
   xmlns:dc="http://purl.org/dc/elements/1.1/"
   xmlns:cc="http://creativecommons.org/ns#"
   xmlns:rdf="http://www.w3.org/1999/02/22-rdf-syntax-ns#"
   xmlns:svg="http://www.w3.org/2000/svg"
   xmlns="http://www.w3.org/2000/svg"
   xmlns:sodipodi="http://sodipodi.sourceforge.net/DTD/sodipodi-0.dtd"
   xmlns:inkscape="http://www.inkscape.org/namespaces/inkscape"
   width="210mm"
   height="297mm"
   viewBox="0 0 744.09448819 1052.3622047"
   id="svg2"
   version="1.1"
   inkscape:version="0.91 r13725"
   sodipodi:docname="gravure-nintendo-docteur-mario-geek-6.svg">
  <title
     id="title3349">Docteur Mario</title>
  <defs
     id="defs4" />
  <sodipodi:namedview
     id="base"
     pagecolor="#ffffff"
     bordercolor="#666666"
     borderopacity="1.0"
     inkscape:pageopacity="0.0"
     inkscape:pageshadow="2"
     inkscape:zoom="0.35"
     inkscape:cx="675.92861"
     inkscape:cy="288.57143"
     inkscape:document-units="px"
     inkscape:current-layer="layer1"
     showgrid="false"
     inkscape:window-width="1538"
     inkscape:window-height="877"
     inkscape:window-x="-8"
     inkscape:window-y="-8"
     inkscape:window-maximized="1" />
  <metadata
     id="metadata7">
    <rdf:RDF>
      <cc:Work
         rdf:about="">
        <dc:format>image/svg+xml</dc:format>
        <dc:type
           rdf:resource="http://purl.org/dc/dcmitype/StillImage" />
        <dc:title>Docteur Mario</dc:title>
      </cc:Work>
    </rdf:RDF>
  </metadata>
  <g
     inkscape:label="Calque 1"
     inkscape:groupmode="layer"
     id="layer1">
    <path
       style="fill:#e74c3c"
       d="m 474.61126,1038.0871 c -1.58422,-0.043 -6.03985,-0.3501 -9.9014,-0.6823 l -7.02099,-0.6038 -10.98156,-2.8519 c -9.21876,-2.3941 -11.09714,-2.9741 -11.70167,-3.6133 -0.39605,-0.4189 -0.80111,-0.8463 -0.90013,-0.9499 -0.099,-0.103 -0.54442,-0.3144 -0.98977,-0.4685 -0.48481,-0.1678 -1.82133,-1.6669 -3.33047,-3.7356 l -2.52073,-3.4553 0,-5.1129 0,-5.1128 -1.60283,-1.1826 c -2.95887,-2.1832 -6.18407,-8.5409 -9.19395,-18.12389 l -1.48085,-4.71474 0.51753,-10.11503 c 0.56291,-11.00177 0.5425,-11.19483 -1.34557,-12.70612 -1.19577,-0.95715 -2.63911,-0.92649 -4.39281,0.0933 -2.41119,1.40212 -2.35159,1.21882 -2.23261,6.86801 0.10587,5.02634 0.0874,5.17575 -0.82873,6.72565 -1.99259,3.37085 -6.22534,6.42274 -12.50834,9.01877 -8.16658,3.3743 -15.55579,5.08399 -31.5056,7.28968 l -11.46622,1.58565 -5.71323,-1.30961 c -3.14228,-0.72031 -5.97921,-1.30963 -6.30428,-1.30963 -1.24361,0 -10.01829,4.7154 -15.14319,8.13771 l -5.35472,3.5759 -12.78182,2.2363 c -7.02999,1.23 -20.23487,3.509 -29.34416,5.0644 l -16.56235,2.8281 -11.52164,0.4707 c -6.33689,0.2589 -14.21414,0.6089 -17.50499,0.7778 -13.57206,0.6966 -26.17144,-0.9861 -35.44731,-4.7341 -5.52665,-2.2331 -8.95758,-4.4084 -14.19723,-9.0015 -1.08916,-0.9548 -2.76473,-2.2507 -3.72352,-2.8798 l -1.74325,-1.14372 0.78528,-4.1292 c 0.4319,-2.27105 0.7303,-4.15637 0.66309,-4.18957 -3.12487,-1.54441 -5.12222,-3.30536 -9.78936,-8.63076 -3.71668,-4.24087 -7.03536,-8.75156 -8.44447,-11.47752 -1.30402,-2.52269 -2.69576,-6.77858 -3.38021,-10.33649 -0.70942,-3.68772 -0.60792,-15.98874 0.1661,-20.12917 0.63164,-3.37883 2.54302,-9.33685 4.12797,-12.86742 3.32217,-7.40037 11.15969,-16.37464 19.27374,-22.06922 11.01356,-7.72951 24.66897,-12.39321 40.4897,-13.82838 l 3.68014,-0.33386 2.40531,1.07671 c 2.31995,1.03851 2.39599,1.05235 2.14305,0.3897 -0.14423,-0.37783 -0.35061,-1.99019 -0.4586,-3.58301 -0.16087,-2.37256 -0.0575,-3.33632 0.5719,-5.33179 1.7961,-5.69447 6.25082,-10.73701 13.99154,-15.83781 l 1.53,-1.00819 1.96454,-8.21384 1.96454,-8.21383 1.28003,-14.84255 c 0.99455,-11.5324 1.27916,-16.62615 1.27614,-22.84022 -0.002,-4.39873 -0.12542,-7.99745 -0.27394,-7.99716 -0.89834,0.003 -38.20737,-4.96347 -38.7955,-5.16297 -0.39606,-0.13436 -3.75804,-2.48533 -7.47107,-5.22439 l -6.75095,-4.98015 0,-13.7634 c 0,-10.94613 0.14692,-15.36091 0.71776,-21.56815 l 0.71776,-7.80481 -1.9533,-6.0634 -1.9533,-6.06343 1.80245,-16.48971 1.80244,-16.48973 -0.20777,-14.84254 c -0.11426,-8.1634 -0.31071,-19.83569 -0.43652,-25.93843 l -0.22875,-11.09588 4.37025,-1.82214 c 4.35638,-1.81639 4.37036,-1.82552 4.40408,-2.88205 0.0186,-0.58296 0.14012,-2.25959 0.27004,-3.72586 l 0.23621,-2.66598 -1.80025,0 c -0.99015,0 -3.87268,0.0858 -6.40566,0.18926 l -4.6054,0.18801 -2.77564,1.99944 -2.77566,1.99945 -2.34032,-0.15179 c -1.28719,-0.0835 -3.79855,-0.30732 -5.58079,-0.49739 l -3.24047,-0.34562 -8.49389,-13.85241 -8.49389,-13.85242 3.70471,-14.56979 c 3.3764,-13.27866 4.0346,-15.4525 7.4273,-24.53037 l 3.72259,-9.96056 -3.25207,-1.39765 c -7.64779,-3.28677 -21.02745,-10.02872 -42.70257,-21.51759 l -15.68321,-8.31287 -9.34034,2.13174 c -12.3487,2.81832 -16.417399,3.20982 -22.122149,2.12871 C 70.195602,535.45928 62.370328,524.0122 61.557623,508.28215 L 61.341704,504.10322 50.177598,489.40478 C 39.80852,475.75304 38.300067,473.58782 28.995099,458.99918 l -10.018403,-15.70716 -0.0055,-2.11421 c -0.0022,-1.16279 0.171015,-4.64727 0.386216,-7.74328 l 0.391267,-5.62911 1.907969,-4.21718 c 8.355113,-18.46744 17.203288,-32.09673 24.124406,-37.16 1.643121,-1.20207 2.13111,-1.81352 3.176981,-3.98074 3.813952,-7.90323 10.518567,-16.15347 16.565899,-20.3849 2.515099,-1.75982 5.72042,-3.4688 8.365159,-4.45999 1.278154,-0.47903 2.210795,-1.1338 3.284113,-2.30564 2.128442,-2.32382 7.241997,-6.75681 10.492476,-9.096 15.600352,-11.22681 32.031752,-15.48481 50.231532,-13.01691 15.72509,2.13234 28.38064,6.19827 36.74689,11.8059 2.2749,1.52478 5.31591,4.64058 6.56973,6.73134 0.54452,0.90796 1.50975,2.12243 2.14498,2.69881 1.70011,1.54264 3.26448,4.38918 4.2732,7.77554 1.2128,4.07154 1.62091,6.94368 1.88439,13.2618 l 0.22391,5.36942 5.25578,0.14774 c 5.93101,0.16672 8.49654,0.64733 12.52268,2.34586 6.30714,2.66085 10.09351,7.20083 11.67853,14.0029 0.62845,2.69698 0.52449,9.92386 -0.19692,13.68972 -1.1832,6.17651 -1.155,6.12112 -7.89684,15.50565 -3.43896,4.78696 -6.8088,9.43907 -7.48856,10.33807 -0.67975,0.89897 -4.13087,4.26102 -7.66917,7.47116 l -6.43326,5.83667 0.84185,9.74472 0.84185,9.74472 11.72884,8.47627 11.72882,8.47628 8.94382,-3.64453 8.94382,-3.64449 9.62644,-8.79024 c 5.29455,-4.83463 15.90055,-14.30216 23.5689,-21.03894 15.34691,-13.48255 13.19088,-11.95019 23.90835,-16.99241 l 4.4213,-2.08009 -4.96137,-4.11067 c -4.76648,-3.94918 -5.67259,-4.92017 -23.06481,-24.71624 -9.95688,-11.33304 -18.39817,-21.04678 -18.75842,-21.5861 -0.36026,-0.53932 -1.51336,-2.14779 -2.56246,-3.5744 -8.93417,-12.14783 -14.6143,-29.45746 -15.36826,-46.83203 -0.16139,-3.71902 -0.0611,-6.29247 0.3817,-9.79897 0.90399,-7.15788 0.65095,-6.54245 2.78646,-6.77754 l 1.82272,-0.20067 -0.24048,-2.05882 c -0.13225,-1.13236 -0.86131,-3.55031 -1.6201,-5.3732 -1.34515,-3.23159 -1.37501,-3.39353 -1.19517,-6.48461 0.21495,-3.69482 -0.2155,-2.95219 6.61857,-11.41842 4.59659,-5.69437 4.65296,-5.78434 4.65296,-7.42994 0,-1.46915 -0.0999,-1.70219 -0.8468,-1.9746 -0.98838,-0.36047 -1.06053,-0.71688 -1.7066,-8.42982 -0.50786,-6.06305 -0.23481,-16.80286 0.55689,-21.90356 1.2097,-7.79387 3.21886,-13.81973 6.29747,-18.88736 3.14374,-5.17485 6.24674,-7.89683 12.59926,-11.05214 l 3.7035,-1.83955 2.02988,0.45185 c 1.11644,0.24852 2.29207,0.53243 2.6125,0.63092 1.00294,0.30826 4.5748,-8.58946 8.44338,-21.03292 1.87326,-6.02544 3.57489,-11.26944 3.78139,-11.65334 0.34359,-0.63876 0.1299,-0.89567 -2.51715,-3.02616 l -2.89261,-2.32814 1.55638,-4.17897 c 0.856,-2.29843 2.73909,-8.00488 4.18462,-12.68101 2.51834,-8.14649 2.71977,-8.63895 4.81668,-11.77593 l 2.18843,-3.27391 2.74473,0.19165 2.74472,0.19165 0.59402,-2.37067 c 0.32671,-1.30386 0.5541,-2.4004 0.5053,-2.43677 -0.0489,-0.0363 -1.70894,-0.54588 -3.68923,-1.13225 -22.40873,-6.63541 -34.42784,-19.39081 -33.53903,-35.59369 0.19726,-3.59617 0.82588,-6.916913 1.30937,-6.916913 0.14056,0 0.2692,-0.383915 0.28586,-0.85315 0.0915,-2.57779 2.42389,-7.679873 4.82352,-10.551701 2.08559,-2.495997 3.9924,-3.877329 6.95742,-5.040108 4.09418,-1.605577 10.41494,-1.91133 11.59657,-0.560938 3.9565,4.521516 9.14659,7.519131 11.98678,6.923143 1.03842,-0.217894 1.02887,0.04939 0.20596,-5.76851 -1.22702,-8.67489 -1.71477,-15.135777 -1.55567,-20.606639 0.10267,-3.530691 0.32778,-5.834218 0.63369,-6.484607 0.575,-1.222508 4.53711,-5.529027 7.35494,-7.994267 4.55041,-3.981027 10.9652,-7.312674 16.01976,-8.320185 1.65149,-0.329191 3.40728,-0.427797 6.12086,-0.34376 4.15664,0.12873 6.38536,0.683879 10.35008,2.578081 2.28292,1.0907 7.30548,4.771166 8.93721,6.549078 0.59408,0.647308 1.19203,1.179989 1.32876,1.183735 0.13674,0.0037 2.92223,-2.373609 6.19,-5.283012 6.22215,-5.539806 10.93371,-9.094947 14.49058,-10.933976 1.16275,-0.601175 3.73431,-2.006536 5.71459,-3.123021 7.51038,-4.23437 19.34411,-9.419727 27.86573,-12.210345 8.41241,-2.754865 17.02937,-4.658388 24.8711,-5.494143 4.48418,-0.47791 23.99888,-0.555624 30.97506,-0.123351 21.68328,1.343586 36.25988,5.106043 46.50747,12.004334 1.45173,0.977251 4.17721,2.79294 6.05664,4.034866 4.79603,3.169253 11.37675,8.324501 15.39088,12.057012 7.62153,7.086796 12.0404,13.904222 12.55387,19.368022 0.13761,1.464164 0.56352,2.950391 1.22212,4.264766 5.17624,10.329934 5.69893,24.119386 1.55423,41.002999 -0.51638,2.10351 -0.87467,3.87216 -0.79617,3.93033 0.0785,0.0582 2.81606,1.17403 6.08352,2.47971 10.74152,4.29229 24.09467,10.21528 28.72636,12.74201 1.65835,0.90467 7.18252,4.38969 8.81521,5.56121 0.54799,0.39321 1.09174,0.71494 1.20836,0.71494 0.11658,0 0.53061,0.32422 0.92003,0.72051 0.38941,0.39628 0.91021,0.72051 1.15735,0.72051 0.38198,0 2.39543,1.20341 9.44321,5.64408 l 1.12358,0.70792 1.59351,-0.54676 c 1.32888,-0.45596 1.82993,-0.87532 3.01705,-2.5253 1.95846,-2.7221 6.58166,-6.41933 9.34462,-7.47308 1.80432,-0.68813 2.63618,-0.82608 5.04827,-0.83717 2.58013,-0.0119 3.1556,0.0922 5.39818,0.9759 4.6016,1.81332 9.52793,6.47437 13.96059,13.20886 3.17129,4.81813 5.6254,9.56247 6.20785,12.00113 1.35401,5.6692 0.9609,16.58138 -0.93951,26.08063 l -1.13024,5.64936 1.4914,6.0523 c 0.84389,3.42465 2.36817,8.32658 3.51086,11.29069 l 2.01949,5.23837 3.09954,-0.13236 3.0995,-0.13236 8.85628,9.16012 8.85632,9.16012 1.1148,5.47037 1.11479,5.47036 -2.20802,2.16706 c -1.21441,1.19188 -3.08222,2.97763 -4.15071,3.96833 l -1.94268,1.80128 -3.89849,0 -3.89845,0 -0.19526,1.08078 c -0.10741,0.59441 -0.28973,2.76676 -0.40524,4.82742 -0.11554,2.06067 -0.30705,4.44967 -0.42565,5.3089 l -0.21564,1.56224 -0.9627,-0.9442 -0.96275,-0.9442 -3.08012,0.20537 -3.08013,0.20538 0.13905,1.19402 c 0.89825,7.71332 0.94287,7.0749 -1.14849,16.43203 -1.06467,4.76346 -1.88119,8.70451 -1.81452,8.75789 0.0667,0.0534 1.80116,0.40368 3.85439,0.77844 11.14423,2.03412 20.84595,5.91618 26.76357,10.7092 4.91059,3.9774 6.18474,6.41152 8.32784,15.90931 l 1.60492,7.11272 -0.73987,7.06101 c -1.02503,9.78259 -1.19241,10.53884 -3.02939,13.68543 -1.83072,3.13591 -6.16641,9.42228 -10.69672,15.50928 -5.75182,7.72827 -14.19591,16.23754 -23.52235,23.70395 -10.58684,8.47538 -20.11199,13.79532 -29.64244,16.55571 -5.95704,1.7254 -6.89963,1.79918 -20.15023,1.57752 -11.31348,-0.18923 -11.97169,-0.17217 -11.97169,0.31058 0,0.28097 0.95612,1.88471 2.12466,3.56388 1.93149,2.77541 2.18314,3.34133 2.76724,6.22329 0.8207,4.04939 0.82985,9.16419 0.0208,11.67229 -1.98121,6.14231 -7.31079,10.29845 -15.35427,11.97364 -2.06346,0.42975 -3.83123,0.4679 -14.94212,0.32256 l -12.60178,-0.16485 -9.25062,-2.57485 -9.25061,-2.57485 -3.06782,1.27481 c -3.38635,1.40719 -3.27352,1.3267 -3.60707,2.57318 l -0.23723,0.88658 4.86176,0.34452 c 4.81746,0.3414 4.97095,0.37481 16.84727,3.66685 11.15683,3.09258 12.34935,3.49045 17.24821,5.75444 5.14099,2.3759 5.65155,2.53872 22.07139,7.039 19.26306,5.27956 19.55001,5.37686 59.79826,20.27673 26.75986,9.90647 27.62599,10.25277 39.23808,15.68832 l 11.87419,5.5582 5.58829,4.39742 c 3.07353,2.41858 8.94741,7.01615 13.053,10.21681 l 7.46473,5.81936 4.11142,12.32998 4.11143,12.32995 -1.901,18.301 -1.90097,18.301 -3.61164,11.09588 c -3.36284,10.33145 -3.97128,11.86669 -8.83209,22.28414 l -5.22041,11.18822 2.59546,2.0692 c 1.72605,1.37603 3.04898,2.77019 3.94937,4.16191 2.29964,3.55466 3.83069,9.69855 3.83069,15.37221 l 0,2.35693 -2.92725,3.63466 -2.92725,3.6347 -9.46773,4.46718 -9.46772,4.46717 -1.7841,2.49234 c -1.67801,2.34408 -2.022,3.21844 -5.78313,14.69844 -3.24064,9.89133 -4.50903,13.25958 -6.68821,17.76125 -3.0978,6.3993 -2.72461,5.80191 -4.90205,7.84637 -0.92854,0.87182 -1.86611,1.86152 -2.08348,2.19935 -0.73011,1.13466 -22.05608,21.82653 -26.2488,25.46831 l -4.14758,3.60256 -8.29651,3.80309 -8.29651,3.8031 -1.82982,2.82562 c -1.35811,2.0972 -3.55316,4.55207 -8.51481,9.5228 l -6.68497,6.69721 2.80552,15.63866 c 1.54304,8.60126 2.81093,15.79612 2.81755,15.98853 0.01,0.30708 -10.59529,6.55899 -11.70501,6.89988 -0.23436,0.0719 -4.10386,0.82354 -8.59892,1.67018 -4.49502,0.84659 -8.26504,1.6131 -8.37778,1.70334 -0.11269,0.0903 0.30195,4.74027 0.92148,10.33347 1.55366,14.02684 3.51363,43.95042 4.73414,72.27751 0.33049,7.67035 0.52891,9.62322 1.27947,12.59057 0.48855,1.93169 1.03738,4.78492 1.2196,6.34051 0.29632,2.52977 0.91471,14.52615 1.20801,23.43502 0.10553,3.20536 0.1523,3.37598 1.42178,5.18768 2.76025,3.93931 4.42595,8.75062 4.82165,13.92713 0.34396,4.49977 0.13415,5.13531 -2.75651,8.35004 l -2.49624,2.7761 1.25496,6.99925 c 2.42642,13.53275 3.12877,25.1601 1.91993,31.78484 -1.69688,9.29964 -6.62749,16.76683 -13.43764,20.35083 l -2.23959,1.1786 1.17348,1.7722 c 2.03908,3.0793 3.02543,5.8902 3.02543,8.6218 0,2.1261 -0.13523,2.6416 -1.09699,4.1822 -0.60338,0.9666 -1.68861,2.1731 -2.41166,2.6813 -1.83213,1.2876 -5.89055,2.7462 -9.09313,3.268 -1.48521,0.2419 -3.99657,0.8418 -5.58079,1.3332 -3.38136,1.0485 -2.7496,0.9461 -19.80282,3.2082 l -13.32189,1.7671 -26.64378,0.036 c -14.65407,0.02 -27.93996,0 -29.5242,-0.043 z m 68.94972,-4.1181 16.13415,-1.7293 5.16485,-1.7321 c 7.47067,-2.5053 8.7881,-3.0867 10.55217,-4.6573 3.44241,-3.0648 3.69941,-7.6687 0.72831,-13.0463 l -0.91385,-1.654 2.05567,-1.7759 c 4.19219,-3.6217 8.35636,-9.47907 10.53784,-14.82256 1.51016,-3.69911 2.1374,-6.28045 2.60742,-10.73027 0.38057,-3.60313 0.32657,-4.63753 -0.7303,-13.99266 -1.03791,-9.18716 -3.00963,-20.38878 -3.9921,-22.67961 -0.58285,-1.35906 -12.34705,-12.70888 -16.25123,-15.67883 -6.63851,-5.04995 -8.22414,-6.02094 -12.84892,-7.86818 -6.16847,-2.46384 -13.18245,-4.29071 -21.54452,-5.6115 -2.55269,-0.40319 -6.50454,-1.05056 -8.78187,-1.4386 -16.30585,-2.77844 -33.24204,-3.23605 -47.8868,-1.2939 -15.53343,2.06001 -29.90821,6.87596 -40.06846,13.42404 -2.06039,1.32786 -3.16528,2.44034 -7.05326,7.10179 -5.20357,6.23875 -10.19968,14.14388 -14.03846,22.21246 l -2.16809,4.55695 0.74318,0.61889 c 0.40873,0.3404 1.12711,1.26738 1.59633,2.05994 0.84428,1.42598 0.85324,1.54135 0.8567,11.05889 l 0.003,9.61788 1.09647,3.92774 c 1.83341,6.56757 3.92002,11.85723 5.92936,15.03123 1.05819,1.6716 2.92786,3.4509 3.62611,3.4509 0.5395,0 0.59033,0.1347 1.40696,3.7264 0.30378,1.3362 0.59075,2.4521 0.63766,2.4796 0.0469,0.028 3.48775,1.0608 7.64633,2.2961 l 7.56108,2.2459 8.10115,0.5166 c 9.16636,0.5845 21.74737,1.2335 34.20485,1.7644 11.61986,0.4952 51.0461,0.4943 57.96822,0 6.81117,-0.4877 14.61978,-1.3891 17.9896,-2.0766 1.47808,-0.3017 2.76347,-0.4875 2.8564,-0.4132 0.9681,0.7749 -8.88092,2.226 -20.846,3.0713 -7.0194,0.4959 -46.05672,0.4911 -57.96822,-0.011 -11.63782,-0.4869 -29.29304,-1.406 -36.82301,-1.9173 l -6.03863,-0.41 -7.39188,-2.2216 c -5.5746,-1.6755 -7.49382,-2.1401 -7.80634,-1.89 -0.22795,0.1825 -0.48092,1.1677 -0.56222,2.1893 -0.18618,2.3408 0.80158,5.099 3.05971,8.544 l 1.62398,2.4775 4.55601,1.0926 c 2.50582,0.6009 8.03951,1.9671 12.29712,3.036 5.56423,1.3969 8.60172,2.006 10.80153,2.1662 1.68324,0.1225 16.99441,0.3075 34.02483,0.4112 17.03042,0.104 31.0202,0.2133 31.08843,0.2439 0.0683,0.031 7.38444,-0.7225 16.25822,-1.6736 z m -299.9225,-19.8911 c 17.37746,-0.4352 19.943,-0.7759 51.15566,-6.794 l 25.08992,-4.8375 7.51369,-4.88145 c 4.13253,-2.68477 8.03221,-5.19991 8.66596,-5.58915 l 1.15226,-0.70775 6.48579,1.23311 6.48578,1.23312 10.54453,-1.76745 c 5.79948,-0.97212 12.73051,-2.11171 15.40223,-2.53243 12.50494,-1.96921 22.41354,-5.93842 26.22263,-10.50434 2.27088,-2.72209 2.72677,-4.16761 2.46581,-7.81859 -0.29117,-4.07369 0.23227,-5.56552 2.62489,-7.4807 1.83125,-1.46584 3.2267,-1.87968 5.59266,-1.65856 0.9594,0.0896 1.26584,0.0106 1.27663,-0.32853 0.008,-0.24557 0.30033,-2.21632 0.64998,-4.37947 l 0.63573,-3.93301 -4.98357,-4.85723 c -2.741,-2.67148 -5.28159,-5.09687 -5.64582,-5.38975 -0.64384,-0.5177 -1.00036,-0.4715 -12.85883,1.66614 l -12.19658,2.1986 -13.14187,-1.92163 -13.14186,-1.92167 -17.37602,-7.29232 -17.37602,-7.29236 -20.42935,-10.7286 c -11.23614,-5.90073 -21.01646,-11.03783 -21.73403,-11.41579 -0.71757,-0.37795 -11.00603,-3.39787 -22.86324,-6.71093 l -21.55857,-6.02374 -1.64882,1.42664 c -0.90686,0.78467 -1.75748,1.42667 -1.89027,1.42667 -0.1328,0 -0.24144,-0.51876 -0.24144,-1.15282 l 0,-1.15282 -1.71024,-0.003 c -0.94064,0 -2.71192,-0.13229 -3.9362,-0.29135 -5.38001,-0.69893 -19.92713,2.96545 -29.74519,7.49275 -14.03053,6.46976 -25.19976,17.22038 -30.10167,28.97344 -0.59568,1.42826 -1.5666,3.45046 -2.1576,4.49379 -7.0099,12.37504 -2.18101,30.64927 12.93939,48.96727 2.35954,2.85851 3.00606,3.45642 3.73748,3.45642 1.18464,0 1.33465,0.27893 0.97616,1.81497 l -0.304,1.30248 4.17796,1.59551 c 12.36709,4.72286 25.91375,7.74103 41.80329,9.31371 4.01386,0.3972 7.75935,0.5142 16.2023,0.5061 l 10.98157,-0.011 37.62533,-5.96771 37.62534,-5.96771 12.78182,-3.17595 c 10.47172,-2.60195 56.77123,-12.66811 58.26725,-12.66811 2.06961,0 -2.65912,1.1134 -21.83862,5.14192 -12.24285,2.5715 -28.32361,6.17551 -35.73507,8.00883 l -13.47538,3.33333 -36.36516,5.74521 c -26.8146,4.23639 -37.59445,5.82629 -41.04582,6.05379 -5.76931,0.3802 -18.81059,0.1437 -25.38361,-0.4604 -15.32139,-1.4082 -31.05417,-4.94285 -42.59887,-9.5707 l -3.17328,-1.27204 0.23218,2.82207 c 0.27697,3.36643 0.9112,5.29809 2.25138,6.85697 2.12374,2.4702 14.44168,8.0868 22.73753,10.3675 8.85583,2.4347 18.1918,3.6968 25.41175,3.4354 1.58423,-0.057 8.30819,-0.2402 14.94212,-0.4063 z m 178.91534,-72.43571 c 2.97628,-4.24777 6.21402,-8.52415 7.1949,-9.50306 5.41862,-5.40764 13.40171,-10.26787 22.79408,-13.87735 14.28477,-5.48966 30.94272,-7.99627 50.15245,-7.54673 10.42039,0.24385 15.22664,0.72608 30.51664,3.0618 14.59125,2.22898 14.3296,2.16002 21.32594,5.62164 10.47086,5.18071 20.60914,12.07759 26.30947,17.89786 3.38228,3.45341 7.36009,9.21601 7.36009,10.66242 0,0.79225 0.60103,0.40043 2.32045,-1.51275 1.44108,-1.60349 1.66308,-2.01317 1.3255,-2.44586 -0.49025,-0.62837 -0.53118,-1.59602 -0.0731,-1.72842 0.36613,-0.10579 -1.72976,-7.01957 -3.56574,-11.7623 -1.03633,-2.67713 -1.2412,-3.79563 -1.80417,-9.84899 -0.58476,-6.28788 -0.70275,-6.90481 -1.48931,-7.78758 -0.84901,-0.9528 -0.8544,-1.00894 -0.88497,-9.17252 l -0.031,-8.21383 -1.85002,-4.6897 -1.85005,-4.6897 -0.9169,-17.64617 c -0.50433,-9.70538 -1.48874,-23.83329 -2.18761,-31.39532 l -1.27069,-13.74916 0.34328,-13.7744 c 0.18881,-7.57592 0.31832,-13.78301 0.28786,-13.79354 -0.0306,-0.0106 -12.6932,0.9767 -28.1394,2.19385 l -28.08399,2.21298 -8.64122,1.76652 -8.64123,1.76652 -40.68578,3.74903 c -39.66441,3.65493 -50.06673,4.67756 -50.41493,4.95628 -0.0936,0.075 0.0904,6.28621 0.4092,13.80279 0.82589,19.4768 0.47562,48.15326 -0.89556,73.32488 l -1.00479,18.44511 -3.27427,5.70313 -3.27431,5.70312 -0.24853,3.51943 -0.24855,3.51942 5.13415,5.04358 c 6.62742,6.51052 8.32996,8.1187 8.47344,8.00385 0.0644,-0.0515 2.55215,-3.56907 5.52844,-7.81683 z m -34.08096,0.6816 c 2.4751,-0.42591 4.6861,-1.10636 8.6374,-2.65822 5.73206,-2.25125 5.95068,-2.44037 4.56102,-3.94496 -0.6859,-0.74258 -0.73932,-1.12814 -0.62764,-4.52754 l 0.1221,-3.71583 2.83335,-4.86111 2.83334,-4.86112 0.99804,-13.87219 c 0.73586,-10.22828 1.05854,-17.9224 1.22842,-29.29114 0.243,-16.26236 0.63433,-31.18625 1.32103,-50.37452 0.22852,-6.38603 0.33981,-11.67153 0.24734,-11.74558 -0.23381,-0.18712 -28.60029,1.93069 -102.71479,7.66862 -22.57254,1.74755 -41.52922,3.13904 -42.12598,3.09214 -1.04972,-0.0824 -1.15379,-0.23053 -3.19918,-4.55239 -1.1628,-2.45695 -2.78888,-6.34772 -3.61352,-8.64615 l -1.49934,-4.17896 -1.52452,-0.25835 c -0.8385,-0.14209 -1.60278,-0.19569 -1.69841,-0.11915 -0.0956,0.0766 -0.41283,4.0187 -0.7049,8.76036 -0.29206,4.74166 -0.69502,10.30721 -0.89545,12.36788 -0.20044,2.06066 -0.77454,9.97189 -1.27581,17.58049 -0.50126,7.60861 -0.99372,14.22291 -1.09436,14.69844 -0.10068,0.47554 -0.7232,2.83626 -1.38346,5.24605 l -1.20049,4.3814 -7.32348,6.07879 -7.32347,6.07879 -1.12652,4.59579 -1.12653,4.59583 1.83006,0.5305 c 1.00655,0.29178 11.2274,3.2411 22.71303,6.5541 l 20.88297,6.02356 17.10243,8.32603 c 9.40633,4.57932 24.32087,11.87035 33.14342,16.20227 l 16.041,7.87623 8.66297,2.45631 c 8.4149,2.38602 8.9141,2.48908 17.43534,3.59979 4.82482,0.6289 8.79827,1.11881 8.82992,1.0887 0.0316,-0.0302 1.13495,-1.7807 2.4518,-3.89019 l 2.39427,-3.83543 -2.68101,-7.98096 -2.68105,-7.98097 -0.0881,-37.75482 -0.0881,-37.75483 1.72065,-12.681 c 0.94636,-6.97456 1.78154,-12.73505 1.85596,-12.8011 0.0744,-0.0661 0.22081,-0.0516 0.32533,0.032 0.41331,0.33086 0.58599,40.57943 0.24455,57.00851 -0.34118,16.41989 -0.31263,18.35207 0.49011,33.14355 l 0.85238,15.70716 1.26263,4.46717 c 0.69443,2.45695 1.26673,4.84812 1.27177,5.31372 0.007,0.65094 -1.93283,6.37994 -3.05575,9.02447 -0.23418,0.55151 2.89117,0.4534 6.75923,-0.21215 z M 285.58444,818.96761 c 49.28891,-3.46469 66.53236,-4.75829 82.63172,-6.19912 9.8024,-0.87726 27.70593,-2.37489 39.78565,-3.32801 28.31878,-2.23451 27.68843,-2.17963 32.85449,-2.86 10.70993,-1.41054 137.88016,-14.96512 140.6293,-14.98916 0.16458,-0.003 -0.43527,-0.74374 -1.33299,-1.64954 -0.89771,-0.90583 -1.57929,-1.68928 -1.51463,-1.74104 0.0646,-0.0517 3.79056,0.51072 8.27978,1.25 4.48919,0.73927 8.24423,1.27845 8.34455,1.19818 0.10024,-0.0803 0.36523,-3.73032 0.58876,-8.11118 0.22351,-4.38084 0.52102,-7.86519 0.66108,-7.74299 0.1401,0.1222 1.1818,2.75117 2.31495,5.84217 1.13311,3.091 2.1185,5.66991 2.18976,5.73092 0.0712,0.0611 1.15159,-0.51713 2.40079,-1.28478 l 2.27123,-1.39572 -3.51201,-13.38322 c -1.93161,-7.36081 -3.56706,-13.42732 -3.63435,-13.48118 -0.0673,-0.0539 -1.32655,0.123 -2.7984,0.39303 -3.8668,0.70941 -16.19066,0.70465 -20.58797,-0.009 -6.72043,-1.0891 -9.09194,-1.81759 -14.27811,-4.38602 l -4.91574,-2.43446 -2.69013,0.83565 c -8.45292,2.62577 -18.78782,2.25434 -28.30361,-1.01722 l -3.09594,-1.06437 -6.88832,1.74477 -6.88828,1.74479 -17.54958,0.34267 c -18.12774,0.35394 -20.40453,0.30356 -26.21074,-0.57978 -15.32954,-2.33221 -29.44754,-10.54553 -40.13378,-23.34839 -5.17282,-6.19739 -6.17222,-8.13968 -10.7642,-20.9205 -10.31385,-28.70634 -14.91836,-45.58091 -13.54855,-49.65286 0.22652,-0.67333 0.5848,-1.17809 0.79619,-1.12169 0.21138,0.0564 1.66229,3.08013 3.22422,6.71937 2.21414,5.15881 4.14995,10.76099 8.78518,25.42362 6.22226,19.68287 6.67678,20.92071 9.55928,26.03462 9.07336,16.09705 22.7408,27.45614 37.76385,31.38582 8.12776,2.12603 13.77175,2.20687 38.53677,0.55185 9.8024,-0.65509 17.87734,-1.23093 17.94431,-1.27966 0.0669,-0.0488 -0.2923,-0.64995 -0.79831,-1.33608 -1.35873,-1.84233 -26.62949,-21.87088 -28.84765,-22.86346 -0.99015,-0.44308 -3.18289,-1.92112 -4.87276,-3.28452 -2.4002,-1.93657 -3.43593,-3.04653 -4.73334,-5.07281 -3.19628,-4.99183 -4.58445,-9.84306 -4.8214,-16.84934 l -0.15072,-4.45655 -1.75122,-1.45166 c -6.69288,-5.54788 -11.6802,-12.01214 -13.39765,-17.36523 -1.06795,-3.32856 -1.01236,-7.35498 0.14151,-10.25233 l 0.89404,-2.24494 -3.47676,0.15877 c -6.87655,0.31397 -46.18023,1.08287 -46.39907,0.90767 -0.1231,-0.0986 -0.15629,-0.22924 -0.0738,-0.29048 0.14463,-0.10733 14.23613,-1.09899 37.59535,-2.64569 6.13887,-0.40645 11.5284,-0.79836 11.97675,-0.87084 0.60887,-0.0985 1.10398,-0.65896 1.95633,-2.21479 2.01866,-3.68476 5.70281,-9.20965 8.09773,-12.1436 1.97271,-2.41677 4.11048,-4.2799 13.91338,-12.12581 15.3718,-12.30312 22.55119,-17.28558 32.82557,-22.78077 9.26163,-4.95352 16.72481,-7.65723 24.24657,-8.78385 2.11058,-0.31613 5.17018,-0.89401 6.79909,-1.28418 7.30457,-1.74967 16.99855,-1.40217 23.94883,0.85841 1.1405,0.37095 2.07362,0.615 2.07362,0.54232 0,-0.0726 -0.49065,-0.91015 -1.09035,-1.86106 -2.82439,-4.4786 -4.28529,-10.09407 -3.62067,-13.9172 0.7407,-4.26087 2.6154,-7.11511 6.74238,-10.26516 l 3.01591,-2.302 -0.0933,-14.73767 -0.0933,-14.73767 -4.76077,-2.38881 c -9.55018,-4.79201 -18.02985,-10.45276 -24.05091,-16.05566 -17.94653,-16.70008 -22.35244,-36.93845 -12.72288,-58.44207 1.50487,-3.3605 5.629,-10.05971 7.8219,-12.70574 2.96528,-3.57803 5.98711,-5.98083 6.75189,-5.36865 0.0928,0.0743 -0.74721,1.15611 -1.86682,2.404 -6.15421,6.85937 -10.46486,14.65363 -12.41223,22.4432 -0.98554,3.94206 -1.34749,11.7465 -0.73702,15.88997 1.5475,10.50304 6.47126,20.7167 14.98662,31.08741 4.76578,5.80415 12.21027,12.77495 15.95196,14.93692 0.92231,0.53292 6.29459,2.50052 11.93839,4.37247 5.6438,1.87195 12.10743,4.03504 14.36363,4.80689 2.25618,0.77181 4.16917,1.34969 4.25105,1.28412 0.0819,-0.0655 2.86597,-7.23405 6.18683,-15.93003 4.71037,-12.33452 6.57637,-16.79309 8.4868,-20.27806 2.75933,-5.03343 3.24201,-5.65466 2.9113,-3.74665 -0.12364,0.7133 -0.75812,4.29747 -1.40992,7.96482 l -1.18508,6.6679 -3.08607,4.04323 -3.08607,4.04319 -4.20662,15.08323 c -3.63593,13.03697 -4.31978,15.90426 -5.04053,21.1355 -0.45863,3.32876 -0.80306,6.07858 -0.76539,6.11069 0.0376,0.0322 5.24734,0.59938 11.57712,1.26055 l 11.5087,1.20216 17.49319,6.27957 17.49316,6.27958 17.76539,9.17575 17.76535,9.17574 5.59314,4.25076 c 3.67497,2.79297 5.67582,4.1273 5.83424,3.89077 0.13264,-0.19799 2.77131,-6.74439 5.86375,-14.54754 l 5.62263,-14.18754 3.39568,-15.49755 c 2.37925,-10.85886 3.73834,-17.9787 4.5406,-23.78698 l 1.14496,-8.28943 -2.59866,-8.57054 c -5.07305,-16.73121 -3.97932,-14.25092 -8.64761,-19.61083 -3.74096,-4.29523 -4.69517,-5.16241 -11.14293,-10.12675 l -7.0516,-5.42926 -21.74528,-9.87461 -21.74529,-9.87464 -24.15169,-8.49242 -24.15169,-8.49244 -16.56235,-4.38691 c -9.10929,-2.41282 -18.13311,-4.97882 -20.0529,-5.70224 -1.91983,-0.72343 -5.72737,-2.47401 -8.4612,-3.89019 -2.73387,-1.41622 -5.16565,-2.6644 -5.40398,-2.77383 -0.23831,-0.1094 -7.36199,-1.94659 -15.83033,-4.08265 -14.27904,-3.60175 -15.48939,-3.85996 -16.6691,-3.55567 -0.69965,0.18044 -5.56571,2.41786 -10.81345,4.97205 -5.24774,2.55418 -11.80218,5.49327 -14.56547,6.5313 l -5.02409,1.8873 -8.23692,12.52412 -8.23692,12.5241 -5.86041,12.39281 -5.86041,12.3928 -3.67284,11.9605 c -2.81348,9.16192 -4.50626,15.56834 -7.2344,27.37945 -1.95886,8.48043 -4.70407,19.88659 -6.10053,25.34703 -1.39646,5.46045 -2.41716,10.00866 -2.26825,10.10714 0.14892,0.0986 1.41778,0.52953 2.81963,0.95783 5.80665,1.77404 12.22619,5.24091 17.91798,9.6765 11.31148,8.81502 17.78224,20.53165 19.51942,35.34384 l 0.23831,2.03197 -1.88854,2.72342 c -13.37924,19.29391 -29.7571,30.8111 -47.29605,33.25931 -4.4622,0.6229 -7.85506,0.55774 -13.90323,-0.26699 -8.7603,-1.19452 -14.06861,-2.46701 -20.37973,-4.88528 -13.08829,-5.01511 -21.39445,-12.79776 -25.39936,-23.79847 -2.57085,-7.06159 -2.96431,-17.16998 -1.01319,-26.0308 1.48279,-6.73399 2.12782,-8.0091 6.29135,-12.43721 12.33499,-13.119 26.88634,-19.98911 41.07949,-19.39487 2.94022,0.1231 3.38318,0.0809 3.391,-0.32258 0.006,-0.25532 0.72464,-5.91128 1.59931,-12.56881 1.58293,-12.04883 1.60439,-12.15639 4.65543,-23.34459 1.68586,-6.18198 4.19992,-14.99564 5.5868,-19.58584 1.38691,-4.59024 2.4661,-8.39034 2.39819,-8.44469 -0.34618,-0.2771 -20.44529,2.41898 -26.88703,3.60663 l -7.41752,1.36752 2.64068,8.06974 2.64069,8.06973 0.007,5.51267 c 0.004,4.06792 -0.11176,5.58883 -0.44387,5.8034 -0.24753,0.1599 -18.43462,7.52632 -40.41574,16.3698 -21.98112,8.84347 -43.0441,17.39267 -46.80665,18.9982 -3.76253,1.60556 -17.6965,7.43648 -30.96439,12.95763 l -24.12343,10.03846 -5.58079,4.71578 c -3.06943,2.59367 -5.7023,4.71586 -5.85083,4.71601 -0.14852,1.4e-4 -0.27003,-0.13224 -0.27003,-0.29421 0,-0.5796 7.38947,-9.01351 8.45444,-9.64941 0.5978,-0.35693 10.56526,-5.12281 22.1499,-10.59083 24.22027,-11.4321 25.0315,-11.7676 75.53372,-31.23773 30.53453,-11.77202 35.24587,-13.6752 39.51561,-15.96263 2.66621,-1.4284 4.84768,-2.75838 4.84768,-2.95554 0,-0.19713 -1.0494,-6.315 -2.33197,-13.59522 -1.28261,-7.28025 -2.24363,-13.30947 -2.13564,-13.39823 0.10795,-0.0888 8.95799,-1.533 19.66667,-3.20931 l 19.47027,-3.04782 3.69481,-10.20959 3.6948,-10.20958 7.91307,-12.8251 c 4.35218,-7.05382 7.89127,-12.84561 7.86463,-12.87066 -0.0267,-0.0251 -10.09385,1.95648 -22.3716,4.4034 -20.81019,4.14738 -22.94544,4.51718 -31.50447,5.45641 -5.04972,0.55413 -9.53901,1.07027 -9.97623,1.14699 -0.4372,0.0767 -5.93244,3.99674 -12.21159,8.71116 -10.71285,8.04323 -12.37169,9.43335 -26.90821,22.54958 -8.52037,7.68786 -15.59953,14.04278 -15.73148,14.12203 -0.13194,0.0792 -5.23156,5.00756 -11.33248,10.95179 -10.11336,9.8536 -14.44238,13.86247 -27.33267,25.31126 -4.47256,3.97238 -4.36179,3.91492 -6.50295,3.37375 -0.58393,-0.14759 -1.43504,0.45897 -4.50064,3.20743 -2.0793,1.86423 -7.63606,6.75226 -12.34837,10.86235 -4.7123,4.11009 -8.82352,7.87638 -9.13604,8.36952 -0.31252,0.49316 -4.75155,6.79763 -9.8645,14.00995 l -9.29626,13.11333 -2.23434,8.35793 c -2.04083,7.63408 -2.55103,9.13369 -2.98411,8.77102 -0.082,-0.0687 0.47946,-3.36718 1.24775,-7.33 1.13245,-5.84113 1.59899,-7.55976 2.4645,-9.07844 0.58719,-1.03033 1.26034,-2.57426 1.49589,-3.43091 0.3297,-1.19914 2.44701,-4.21453 9.20026,-13.10262 4.82463,-6.34967 8.77204,-11.62175 8.77204,-11.71564 0,-0.33893 -13.9972,-10.94951 -14.1609,-10.73465 -0.45653,0.59915 -10.03616,27.55483 -11.03763,31.05827 -2.13593,7.47214 -5.08976,16.69925 -5.46023,17.05657 -0.2022,0.19499 -0.28192,0.46559 -0.17715,0.60127 0.10476,0.13569 -5.69416,4.95574 -12.88646,10.71125 l -13.07695,10.46457 -0.22929,6.37748 c -0.1261,3.50763 -0.32532,7.93488 -0.44271,9.83833 l -0.21344,3.46081 -4.84756,1.15046 c -2.66616,0.63276 -5.01505,1.23128 -5.21976,1.33001 -0.2485,0.1199 -0.004,2.41841 0.73416,6.91692 1.07259,6.53179 1.11794,7.26939 1.48604,24.17374 l 0.3797,17.43639 -1.62391,17.80731 -1.62391,17.80728 1.46929,4.9609 1.46927,4.96086 -0.39472,17.5805 c -0.2171,9.66927 -0.48503,19.20164 -0.59541,21.18304 l -0.2007,3.60257 7.67249,4.6053 7.6725,4.60534 5.0407,1.04091 c 5.41861,1.11898 36.45238,5.91416 36.74737,5.67804 0.0978,-0.0783 -0.55377,-1.68427 -1.44798,-3.56881 -1.5052,-3.17219 -1.86582,-4.52785 -4.85966,-18.26898 -1.7786,-8.16341 -4.78751,-23.14285 -6.68647,-33.28765 l -3.45266,-18.44511 -0.87219,-20.16075 c -0.82678,-19.11132 -1.31073,-56.34388 -0.77561,-59.67196 0.10201,-0.63405 1.12685,-7.54016 2.27755,-15.3469 2.6795,-18.17852 3.19065,-18.74856 2.13211,-2.37769 -0.28186,4.3591 -0.61431,16.67985 -0.73877,27.37945 -0.22578,19.40765 -0.22329,19.50376 1.04805,40.49276 l 1.27436,21.03896 4.12964,21.03894 c 2.2713,11.57142 5.99665,29.72832 8.27854,40.34867 2.28188,10.62034 4.81615,23.39501 5.63168,28.38816 0.81554,4.99315 1.54695,9.24533 1.62535,9.44928 0.10201,0.26547 0.63038,0.32484 1.85903,0.20896 0.94406,-0.089 9.0075,-0.67443 17.91877,-1.30085 z m 302.29015,-65.09929 c 1.69823,-0.31008 4.6819,-0.98693 6.63031,-1.50408 l 3.54261,-0.9403 6.51157,-5.29391 6.51156,-5.29393 1.26313,-2.70604 1.26313,-2.70604 8.27823,-5.29475 c 7.94794,-5.0835 8.7838,-5.71951 20.95007,-15.94092 8.33814,-7.00522 13.82896,-11.87828 16.05515,-14.24875 3.34891,-3.56597 3.43484,-3.6992 8.4582,-13.11332 4.83747,-9.0658 5.26219,-10.02314 9.07768,-20.46254 3.77439,-10.32692 4.106,-11.07799 5.81145,-13.16379 1.60673,-1.965 1.95936,-2.23236 3.15837,-2.39451 2.01027,-0.27187 8.48053,-2.42415 11.71793,-3.89791 3.99546,-1.81883 8.38836,-5.20942 10.07175,-7.77367 2.64724,-4.03244 2.90126,-7.6573 0.87867,-12.53806 -2.25094,-5.43176 -4.91322,-8.48243 -14.43917,-16.54571 l -7.37125,-6.23947 -12.56312,-6.02797 c -6.9097,-3.31536 -13.95608,-6.83305 -15.65859,-7.81706 -3.91829,-2.26469 -2.67197,-1.77099 -21.73527,-8.60992 -14.94792,-5.36254 -16.49647,-5.85574 -19.8156,-6.31114 -1.98028,-0.27169 -7.69659,-1.08224 -12.70289,-1.80115 l -9.10242,-1.30719 -4.3995,0.3051 c -7.72309,0.53559 -12.22964,1.8345 -15.7882,4.55063 -4.94681,3.77577 -5.85216,9.63987 -2.66517,17.2635 1.79907,4.30361 3.20244,6.40235 4.42445,6.6166 0.5435,0.0953 1.2312,0.24445 1.52824,0.33144 0.29705,0.087 0.86412,0.19459 1.26018,0.23914 1.25776,0.14157 9.49721,1.84633 16.11657,3.33459 8.52557,1.91685 17.35054,4.33385 21.34343,5.84563 2.09017,0.79135 14.28784,7.12702 34.08121,17.70229 l 30.826,16.46983 0.14153,1.66185 c 0.0778,0.91401 0.10884,1.70317 0.0689,1.75372 -0.17899,0.22641 -52.37739,-27.85346 -54.07522,-29.08948 -4.69329,-3.41682 -14.21654,-7.59386 -23.2023,-10.17695 -8.07839,-2.32226 -19.65364,-4.70822 -27.46044,-5.66036 -1.58424,-0.19321 -3.10195,-0.49102 -3.37276,-0.66181 -0.33383,-0.2105 -5.43486,-0.31327 -15.84224,-0.31916 -14.92473,-0.008 -15.43467,0.01 -18.41034,0.65633 -14.03988,3.05068 -30.40708,11.3587 -46.15413,23.42791 -1.32434,1.01503 -5.61795,4.58406 -9.54135,7.93116 l -7.13345,6.08565 -5.55501,8.46869 c -3.05529,4.6578 -6.32055,9.57108 -7.25618,10.91844 -0.93563,1.34735 -1.95987,3.15416 -2.2761,4.01512 -1.45414,3.95922 -0.0911,8.85406 3.88912,13.96569 1.51315,1.94333 1.8017,2.16245 3.07412,2.33454 2.18022,0.29484 5.09041,1.84088 6.38904,3.39418 1.59402,1.90665 2.07544,4.02055 1.68809,7.41235 -0.53333,4.67043 -0.34449,11.93902 0.38202,14.70267 2.9548,11.24041 11.51634,17.65269 25.38083,19.00929 1.66801,0.16322 3.06137,0.26515 3.09633,0.22653 0.035,-0.0387 0.30476,-2.40466 0.59949,-5.25789 l 0.53586,-5.18768 -1.95421,-4.27325 c -1.07483,-2.35025 -1.86492,-4.34468 -1.75579,-4.43204 0.10917,-0.0873 1.756,0.86292 3.65975,2.11171 1.90373,1.24876 3.68141,2.40818 3.9504,2.57643 0.4057,0.25374 0.42569,1.33497 0.11716,6.34051 -0.49259,7.99166 -0.24736,13.13844 0.7677,16.11313 2.8583,8.37626 9.45707,13.95818 18.9918,16.06533 4.11343,0.90906 13.79704,0.89456 19.17984,-0.0286 2.07595,-0.35607 3.81136,-0.67694 3.85645,-0.71302 0.0451,-0.0361 -0.6508,-3.04283 -1.54643,-6.68163 l -1.62847,-6.61597 -3.05514,-4.5736 c -1.68036,-2.51548 -2.97467,-4.63805 -2.87627,-4.71682 0.0984,-0.0788 2.57227,1.49864 5.49751,3.50529 l 5.31864,3.6485 0.61202,3.37395 c 1.82206,10.04533 8.30176,16.59936 18.13123,18.33931 3.25846,0.57678 10.00445,0.39851 14.24927,-0.37657 z m -19.23116,-59.41905 c -1.28087,-0.80652 -2.14205,-3.34829 -1.98388,-5.85561 0.18969,-3.00629 2.04283,-5.93036 5.49529,-8.67096 2.79277,-2.21689 6.88975,-4.63467 7.19144,-4.24393 0.10432,0.13508 -0.75384,1.02224 -1.90701,1.97142 -3.20161,2.63528 -5.06391,6.22273 -5.65525,10.89393 l -0.25395,2.00604 1.56187,-0.99018 c 2.52987,-1.60386 15.98454,-12.25789 17.08417,-13.52801 0.55528,-0.64139 1.16765,-1.16619 1.36078,-1.16619 0.91659,0 -1.36708,5.84 -3.71908,9.51076 -3.4185,5.3353 -7.63891,8.42972 -13.47238,9.87801 -3.00147,0.74518 -4.73378,0.80432 -5.702,0.19472 z m -29.49696,-23.33379 c -0.74481,-0.10718 -1.4739,-0.29169 -1.62023,-0.41005 -0.47473,-0.38395 -0.20487,-4.86712 0.4088,-6.79143 0.95658,-2.99978 2.62798,-5.42448 5.11556,-7.42128 1.23423,-0.9907 2.50208,-1.80127 2.81744,-1.80127 0.72504,0 0.7196,0.0545 -0.12039,1.20838 -0.38162,0.52425 -0.9424,1.73131 -1.24621,2.68238 -0.52435,1.64159 -1.68594,7.98071 -1.4932,8.14899 0.0499,0.0436 3.85498,-2.00884 8.45572,-4.56101 4.60069,-2.55218 8.45065,-4.57168 8.55547,-4.48779 0.29729,0.23797 -2.30106,4.15741 -4.03189,6.08179 -4.59754,5.11171 -11.49168,8.12109 -16.84107,7.35129 z m -27.18541,-21.22766 c -1.04778,-0.33769 -1.92076,-2.66549 -1.92076,-5.12157 0,-4.0555 1.99544,-7.60687 5.98409,-10.65026 3.53779,-2.69936 8.15861,-4.42803 5.77488,-2.16044 -1.25228,1.19129 -2.77206,3.84756 -4.49329,7.85335 -0.80788,1.88013 -1.46886,3.47699 -1.46886,3.54855 0,0.12401 8.82661,-4.63644 13.59193,-7.33049 l 2.25032,-1.27225 0,1.11264 c 0,1.74128 -2.18735,4.39916 -6.48092,7.87508 -5.7934,4.69007 -10.69399,6.96516 -13.23739,6.14539 z m -85.40477,-0.67419 c 14.91591,-2.43312 28.89428,-9.21094 36.3815,-17.64061 8.13641,-9.16054 10.33769,-22.07035 6.05431,-35.50625 -0.87248,-2.73677 -1.51207,-3.78678 -4.50522,-7.39644 -5.92053,-7.13997 -14.36478,-13.60303 -23.01033,-17.61161 l -2.17028,-1.0063 -1.35868,5.31845 c -0.74729,2.92514 -1.30987,5.34479 -1.2502,5.377 6.14764,3.32007 13.98474,9.22224 17.13184,12.90216 9.17733,10.73107 7.6194,21.55263 -4.61071,32.0268 -2.91645,2.49776 -8.86053,6.41824 -12.09235,7.97566 l -2.0932,1.00872 -8.29481,-0.0158 c -7.82583,-0.015 -8.49585,-0.0593 -11.84922,-0.78487 -12.64193,-2.73521 -20.87637,-9.88643 -23.27018,-20.20903 -1.30006,-5.60622 0.9792,-14.53898 5.29442,-20.74934 3.95188,-5.68752 11.22679,-10.25622 19.00976,-11.93828 l 2.52036,-0.54469 0.0632,-3.7169 c 0.0346,-2.04426 0.28668,-5.25314 0.55982,-7.13082 l 0.49661,-3.41395 -2.3601,0.19664 c -10.92628,0.91032 -20.42296,4.59854 -29.27947,11.37115 -5.83318,4.46065 -11.35384,10.44 -14.51656,15.72266 -1.89035,3.15742 -2.31085,5.47309 -2.30265,12.68101 0.0122,10.66225 2.80307,18.87675 8.90699,26.21597 6.44614,7.75066 16.69873,13.24197 29.61769,15.86331 8.30988,1.6861 11.56809,1.87963 16.92745,1.0054 z M 189.38774,635.9793 c 1.12384,-1.25646 2.04333,-2.39286 2.04333,-2.52526 0,-0.55134 -4.4905,-9.31059 -7.70503,-15.02962 -1.9011,-3.38231 -3.45655,-6.48706 -3.45655,-6.89945 0,-2.06862 1.74616,-9.08058 3.96336,-15.9155 3.23287,-9.96583 4.6751,-15.20197 5.7746,-20.96534 0.38224,-2.00357 0.35925,-2.15188 -0.56885,-3.67032 -0.84995,-1.39055 -0.94754,-1.83617 -0.80511,-3.67616 0.0891,-1.15158 0.27916,-2.30578 0.42227,-2.56488 0.22906,-0.41479 -0.2698,-0.50142 -4.17304,-0.72454 -4.64156,-0.26535 -6.18271,-0.0715 -6.83364,0.85954 -0.17736,0.25368 -0.87401,1.68086 -1.54813,3.17152 -0.94107,2.08098 -2.31788,7.32218 -5.92958,22.57248 -2.58716,10.9242 -4.70344,20.05179 -4.70285,20.28353 7.2e-4,0.23172 3.07903,6.44383 6.84097,13.80467 3.76194,7.36083 6.83989,13.42394 6.83989,13.47357 0,0.0496 1.75388,0.0903 3.89752,0.0903 l 3.89751,0 2.04333,-2.28447 z m 13.745,-3.19271 c 2.1783,-1.86587 6.06686,-5.06047 8.64122,-7.09915 2.57436,-2.03865 8.35416,-6.62484 12.84399,-10.19156 l 8.16333,-6.48489 8.34239,-25.45539 c 4.58831,-14.00044 8.28301,-25.5029 8.21042,-25.561 -0.27886,-0.22322 -6.33827,-0.71636 -8.80218,-0.71636 l -2.58538,0 -2.55278,8.28589 c -4.53511,14.72017 -11.25559,36.79573 -11.45113,37.61481 -0.21601,0.90487 -0.85513,1.3049 -5.14767,3.22204 -2.7035,1.20744 -3.32866,1.65124 -5.36043,3.80528 -1.26499,1.34113 -2.49245,2.37934 -2.72767,2.30708 -0.36692,-0.11271 -20.03687,12.82468 -20.25465,13.32195 -0.0433,0.0989 0.3712,1.7935 0.92112,3.76579 l 0.99985,3.58602 3.03945,1.52475 c 1.67169,0.83865 3.20147,1.51184 3.39949,1.49601 0.19804,-0.0158 2.14232,-1.55541 4.32063,-3.42127 z m 228.73665,-2.61497 c 1.92295,-0.17085 4.06338,-0.5239 4.75648,-0.78455 1.98519,-0.7466 9.72099,-7.09076 11.83435,-9.70542 2.04941,-2.53556 3.84171,-5.9643 4.42643,-8.46794 0.20886,-0.89447 0.30168,-2.92323 0.20619,-4.50836 -0.34024,-5.64965 -3.73729,-10.77554 -10.92128,-16.47942 -5.87081,-4.66128 -5.54569,-4.65835 -5.54569,-0.0504 l 0,3.80885 1.75461,2.03744 c 4.19971,4.87659 5.58532,8.18729 5.38759,12.87301 -0.12292,2.91355 -0.19825,3.16549 -1.63709,5.47588 -1.69155,2.71622 -3.90403,4.88122 -6.61769,6.47577 -2.18415,1.28334 -3.82865,1.76879 -7.30202,2.15551 -6.5777,0.73229 -12.35524,-1.15813 -16.33488,-5.34485 -3.03005,-3.18771 -5.86674,-8.98899 -5.84557,-11.9547 0.0119,-1.66522 1.26818,-4.61586 2.87526,-6.75313 1.40935,-1.8743 4.76427,-4.51093 6.79521,-5.34026 l 1.34234,-0.54816 -0.50191,-3.98545 c -0.27609,-2.19199 -0.55469,-4.02823 -0.61918,-4.08054 -0.27753,-0.22518 -4.76017,0.89105 -6.44264,1.60426 -2.30898,0.9788 -6.85851,4.62854 -8.43806,6.76924 -2.61826,3.54838 -4.90267,8.72972 -5.85875,13.28828 -0.41967,2.00081 -0.40085,2.53897 0.16574,4.74227 2.70776,10.52979 11.48955,17.23784 24.56516,18.76438 3.09202,0.36097 7.94788,0.36435 11.9554,0.008 z M 205.21745,611.18256 c 0.48111,-0.3594 1.54719,-4.02057 4.20464,-14.43984 1.95806,-7.67709 3.61231,-14.3351 3.6761,-14.79556 l 0.11597,-0.83721 -9.9014,-1.6602 c -5.44578,-0.91315 -9.91094,-1.63879 -9.9226,-1.61257 -0.0117,0.0262 -2.32989,7.63469 -5.15162,16.90768 l -5.13042,16.85997 1.66749,2.85046 c 0.91712,1.56776 2.29816,3.94316 3.069,5.27867 l 1.40149,2.42821 7.66342,-5.24906 c 4.21488,-2.88701 7.95344,-5.46575 8.30793,-5.73055 z m 226.94818,7.92208 c 4.80276,-1.14166 7.99728,-5.71758 9.11124,-13.05118 0.48885,-3.21815 0.35796,-3.49131 -3.06428,-6.39517 -2.68956,-2.28213 -4.9012,-3.49962 -7.64918,-4.21076 -1.70625,-0.44156 -2.21126,-0.45513 -4.50064,-0.12093 -3.30538,0.48251 -4.77532,1.07783 -6.62299,2.68232 -1.81265,1.57409 -2.96312,3.34401 -4.15417,6.3908 -1.55121,3.96805 -1.57619,4.53686 -0.29128,6.62611 2.12005,3.4471 8.54483,7.49739 12.99032,8.18931 2.2919,0.35671 2.206,0.35898 4.18098,-0.1105 z M 218.88576,605.56557 c 2.95636,-1.35209 4.28414,-2.12327 4.40639,-2.55927 0.58734,-2.09464 8.18734,-27.25745 10.63415,-35.20859 1.60972,-5.23091 2.95276,-9.83498 2.98452,-10.23126 0.0318,-0.39629 0.14801,-0.78537 0.2583,-0.86462 0.1103,-0.0792 1.47666,-4.3591 3.03638,-9.51076 1.55971,-5.15165 3.23053,-10.00569 3.71292,-10.78675 1.35165,-2.18848 3.84651,-7.51695 4.86769,-10.39629 1.59678,-4.50231 2.08641,-6.80515 2.3006,-10.8202 0.37183,-6.97042 -1.40872,-11.35336 -6.15202,-15.14348 -3.14427,-2.51242 -7.33915,-4.32284 -9.837,-4.24546 -2.96868,0.092 -8.47205,3.07972 -13.80601,7.49523 -6.76282,5.59832 -12.7907,13.01316 -17.76655,21.8545 -1.82739,3.24701 -2.4546,5.01583 -7.45337,21.01955 -5.2609,16.8429 -5.43357,17.48905 -4.77935,17.88554 0.58518,0.3546 0.59715,0.41259 0.0869,0.42048 -0.51102,0.007 -0.54365,0.17639 -0.23895,1.23404 0.19409,0.67368 0.28831,2.37094 0.2094,3.77173 l -0.14348,2.54687 1.46257,0.94958 c 4.12515,2.67831 13.20504,4.68122 21.97432,4.84731 l 3.2293,0.0612 1.69173,-11.67229 1.69173,-11.6723 6.33646,-19.59791 c 5.35618,-16.56601 6.61267,-20.86381 8.12174,-27.78047 0.9819,-4.5004 1.85479,-8.23819 1.93976,-8.3062 0.19938,-0.15958 1.30167,3.70547 1.53802,5.39286 0.14348,1.02434 -1.11683,5.59765 -5.99642,21.75946 -6.74149,22.32862 -6.58116,21.6572 -16.03502,67.1517 -1.48227,7.13307 -2.79138,13.3421 -2.90912,13.79783 -0.11775,0.45574 -0.0752,0.76441 0.0945,0.68593 0.1697,-0.0785 2.21267,-1.01353 4.53994,-2.07792 z m 216.40001,-19.97122 c 0.54058,-4.24021 1.63207,-13.74016 2.42555,-21.11099 0.79349,-7.37084 1.60605,-14.71156 1.80566,-16.31274 0.44772,-3.59095 5.78898,-28.53544 6.99805,-32.68207 0.48536,-1.66438 2.49369,-8.6044 4.46302,-15.42227 l 3.5806,-12.39612 5.19251,-10.38603 5.19255,-10.38601 7.64576,-10.03191 c 4.20515,-5.51754 7.56637,-10.09545 7.46937,-10.17309 -0.16904,-0.13531 -17.73918,4.67307 -18.48611,5.05904 -0.19932,0.10302 -3.77873,6.69964 -7.95428,14.65919 l -7.59189,14.47194 -4.2081,12.4752 c -2.31444,6.86137 -6.05185,18.83011 -8.3053,26.59723 -3.86716,13.3291 -4.19862,14.72078 -5.90315,24.78561 -0.99327,5.86497 -2.28487,14.16526 -2.87021,18.4451 -0.87878,6.4255 -1.53576,9.58959 -3.76999,18.15691 -1.4882,5.70645 -2.77444,10.61043 -2.85837,10.89774 -0.12635,0.43259 0.013,0.49387 0.80975,0.35648 4.55105,-0.78453 12.29484,-0.64114 13.89736,0.25731 0.41078,0.2303 0.91283,0.42553 1.11565,0.43383 0.21981,0.009 0.76562,-3.09814 1.35157,-7.69435 z m 145.03542,-15.13596 c 1.94449,-1.08728 2.16567,-1.13748 6.3009,-1.43033 2.35714,-0.16692 4.3371,-0.33702 4.39993,-0.37804 0.30349,-0.19799 5.04363,-21.04569 4.82188,-21.20706 -0.53987,-0.39276 -14.61549,-3.71348 -14.84247,-3.5016 -0.21624,0.20183 -3.63396,26.30486 -3.60692,27.54796 0.013,0.59262 0.0407,0.58281 2.92668,-1.03093 z m -306.43842,-7.48643 c 1.88127,-1.91925 6.38072,-6.48205 9.99875,-10.13957 3.61805,-3.65752 6.98504,-7.11669 7.48219,-7.68708 l 0.90392,-1.03708 -1.06423,-5.50914 -1.06422,-5.50915 0.339,-9.88145 c 0.31191,-9.09217 0.44075,-10.41096 1.61288,-16.51018 2.41262,-12.55418 3.07713,-15.25168 5.73083,-23.26398 l 2.66185,-8.03685 -0.91357,-2.07435 -0.91355,-2.07438 8.04598,-11.02343 c 10.93091,-14.97593 11.12016,-14.87667 2.17414,1.14033 -4.72525,8.46011 -6.03381,11.06315 -5.90758,11.75162 0.11125,0.60669 0.29019,0.80394 0.57001,0.62828 14.15925,-8.8882 20.70183,-13.2635 24.36898,-16.29648 l 4.21765,-3.48828 -6.85681,-3.25176 c -5.14332,-2.43913 -7.67449,-3.84554 -10.12882,-5.62786 -1.7996,-1.3069 -4.83054,-3.5087 -6.73542,-4.89292 l -3.46342,-2.51677 -5.54686,3.67551 c -4.58223,3.03629 -7.8637,5.65849 -18.86913,15.07812 -12.133,10.3847 -14.16704,12.27571 -22.78556,21.18305 l -9.46329,9.78042 2.68491,2.01744 c 2.32211,1.74482 3.3243,2.86467 7.41663,8.28733 l 4.7317,6.26992 -0.92332,13.28984 -0.92332,13.28987 -3.72306,11.91012 -3.72308,11.9101 1.12165,1.25114 c 2.22931,2.48675 13.89021,10.8244 15.16363,10.84215 0.19804,0.003 1.89928,-1.56527 3.78054,-3.48453 z m -94.26003,-6.64136 c 1.34542,-3.83792 4.07251,-12.48991 6.06019,-19.22669 3.13885,-10.63845 4.09243,-13.37086 7.25355,-20.78456 l 3.63959,-8.53581 5.25861,-3.98149 c 9.32691,-7.06174 24.65584,-18.94958 26.27757,-20.37873 0.8669,-0.76394 1.49169,-1.45661 1.38841,-1.5393 -0.10333,-0.0827 -3.61563,1.67323 -7.8052,3.902 -4.18958,2.22878 -7.78213,4.0523 -7.98346,4.0523 -0.30339,0 -20.90487,-14.17633 -23.6749,-16.29122 -0.8054,-0.61492 -0.93159,-1.22003 -2.22111,-10.65012 -0.75197,-5.49898 -1.42948,-10.048 -1.50562,-10.10896 -0.21425,-0.17151 -6.50637,6.00273 -20.96123,20.56846 l -13.24574,13.34736 -7.54339,5.56419 -7.54338,5.5642 -11.00373,4.72126 c -6.05205,2.59667 -11.50982,4.808 -12.12836,4.91409 -0.61855,0.10611 -8.70373,1.1828 -17.967064,2.39274 l -16.842436,2.19989 -4.040534,-1.72825 c -2.222296,-0.95052 -4.364577,-1.9367 -4.760641,-2.19151 -0.720097,-0.46328 -0.720097,-0.46328 0,-0.32593 0.396064,0.0755 3.166471,0.42038 6.15647,0.76634 l 5.436374,0.62903 12.20614,-1.75525 c 6.713371,-0.9654 13.606591,-1.93184 15.318251,-2.14764 2.09358,-0.26394 3.7433,-0.674 5.04071,-1.25289 1.06074,-0.47329 6.14815,-2.7614 11.30536,-5.0847 l 9.37677,-4.22419 15.48307,-13.04499 c 14.39908,-12.13166 16.14895,-13.7209 24.99416,-22.69981 5.2311,-5.31018 11.41768,-11.52736 13.74796,-13.81596 2.33028,-2.2886 4.19384,-4.19557 4.14124,-4.23768 -0.0526,-0.0421 -1.38583,0.10747 -2.96274,0.33236 -3.72312,0.53096 -9.40791,0.52955 -12.58847,-0.003 -3.23468,-0.54173 -7.75919,-2.34071 -10.17606,-4.04608 -3.94686,-2.78492 -7.38452,-7.73835 -9.00233,-12.97172 l -0.91562,-2.96188 -1.52456,0.5929 c -1.42716,0.55499 -1.61073,0.76973 -2.87309,3.36104 -0.7417,1.52247 -1.84321,3.48146 -2.44782,4.35328 -5.53828,7.98601 -14.87751,12.82807 -26.4428,13.7097 l -2.61507,0.19935 -1.38078,2.34007 c -3.30727,5.60501 -8.60141,9.37674 -16.19396,11.53725 -5.818455,1.65564 -14.336775,2.13541 -18.410513,1.03692 -4.215607,-1.13676 -8.318491,-3.47946 -13.020687,-7.43467 l -3.084879,-2.59482 -2.123898,0.60018 c -3.051676,0.8624 -8.96789,0.84785 -12.92542,-0.0318 -5.43375,-1.20769 -14.458376,-5.24763 -19.619008,-8.78254 -1.302183,-0.89197 -1.263631,-1.36488 0.05503,-0.67446 1.581312,0.82799 9.310239,3.34859 12.845361,4.18923 9.94936,2.36593 18.357956,2.27266 23.727383,-0.26323 1.442508,-0.68125 1.893952,-0.71915 1.893952,-0.15893 0,0.22819 0.768254,1.62239 1.707213,3.0982 2.211468,3.47586 5.9811,6.64291 9.454368,7.94309 5.65806,2.11801 10.520276,2.00138 18.285481,-0.43865 6.48677,-2.0383 11.3433,-5.25965 13.69501,-9.08395 1.39122,-2.26241 1.84442,-3.8418 1.85551,-6.46645 0.018,-4.25278 -5.411,-14.95728 -10.46448,-20.63321 -8.679483,-9.74856 -21.166306,-14.89206 -36.153341,-14.89206 -4.617405,0 -10.421767,0.61581 -12.013026,1.27447 -0.533985,0.22103 -6.050683,2.94663 -12.259325,6.05685 -6.208631,3.11025 -11.374864,5.58581 -11.480496,5.50129 -0.319247,-0.25556 2.436009,-3.25537 5.039637,-5.48699 1.346878,-1.15444 3.623606,-2.8168 5.05941,-3.69412 15.438799,-9.43376 34.952857,-8.99099 56.308141,1.27763 1.61173,0.77499 3.15095,1.4104 3.4205,1.41201 0.26953,0.003 3.40648,4.09627 6.97099,9.09928 l 6.48092,9.09641 1.83559,6.1798 c 1.00958,3.39889 1.93967,6.26312 2.06686,6.36495 0.39404,0.31537 5.68308,-0.41266 8.44991,-1.16317 5.83101,-1.58167 11.7604,-5.46038 15.28945,-10.0016 1.62691,-2.09355 4.57623,-7.29833 4.58882,-8.0981 0.003,-0.21154 -4.13915,-7.90677 -9.20552,-17.10051 l -9.21158,-16.71587 -12.7994,-5.4759 -12.7994,-5.47588 -5.80339,-0.93344 -5.803396,-0.93341 -11.887312,1.29827 c -6.538033,0.71409 -12.316646,1.36855 -12.841379,1.45438 -0.728334,0.11912 -1.267072,-0.0639 -2.277037,-0.77378 -0.958809,-0.67385 -1.191732,-0.9863 -0.846196,-1.13503 0.262223,-0.11287 3.798249,-1.0152 7.857827,-2.00516 l 7.381043,-1.79998 8.227238,0.33178 c 13.306592,0.53658 22.573042,1.72672 27.026302,3.47111 1.20548,0.47219 5.83729,2.74719 10.29293,5.05551 l 8.10115,4.19699 6.73626,12.10739 c 6.10144,10.96639 6.79232,12.37131 7.33107,14.90789 2.59957,12.23959 8.97241,9.51856 18.65727,-7.96616 l 1.58493,-2.86136 -0.29553,-7.03934 c -0.30046,-7.15739 -0.5199,-8.40537 -2.21898,-12.62029 -2.90797,-7.21373 -9.11114,-14.12693 -16.72947,-18.64433 -5.58386,-3.31102 -14.19164,-6.32598 -21.18643,-7.42076 -2.60013,-0.40694 -24.16162,-2.46717 -25.82056,-2.46717 -0.37714,0 -0.59815,-0.11338 -0.49117,-0.25195 0.35698,-0.46234 7.15026,-0.95961 13.16481,-0.96367 14.68623,-0.01 26.91047,2.90181 36.79858,8.7652 3.52226,2.08862 8.23411,5.85151 9.44227,7.54064 0.46945,0.65633 2.82819,4.86648 5.24163,9.35591 l 4.38806,8.16257 1.2181,6.213 c 0.66996,3.41715 1.29113,6.27147 1.38036,6.34289 0.0892,0.0715 1.51794,-0.95049 3.17489,-2.27096 3.18742,-2.54015 5.09583,-5.00451 6.19611,-8.00112 0.75653,-2.06041 0.77214,-9.42198 0.0298,-14.05497 -2.45613,-15.32891 -10.8289,-26.3145 -23.67748,-31.06634 -3.25817,-1.20497 -22.22949,-5.76351 -25.7136,-6.17858 -7.02797,-0.83733 -16.69198,-0.10143 -23.725,1.80652 -12.09792,3.28199 -24.431369,10.63383 -32.381419,19.30219 -1.922702,2.09644 -2.766659,2.787 -3.593093,2.94004 -3.786108,0.70117 -9.466389,3.90175 -12.816777,7.22169 -5.1048,5.0584 -9.820791,12.24818 -12.413171,18.92456 -0.513617,1.32275 -0.914698,1.79737 -2.008539,2.3768 -4.630285,2.45273 -13.85655,16.30873 -24.754452,37.17619 l -2.55482,4.89201 0,6.57716 0,6.57715 8.412467,12.16365 c 4.626856,6.69001 11.494061,16.64671 15.260462,22.12602 4.071014,5.92244 9.493031,13.25647 13.370623,18.08563 l 6.522639,8.12331 0,4.43452 c 0,5.00768 0.531823,7.8092 2.211522,11.64965 1.900349,4.34497 3.760226,6.84293 7.162433,9.61972 3.474603,2.83587 6.556251,4.23505 10.979263,4.98502 5.704376,0.96721 8.669541,0.51064 20.332552,-3.13089 l 7.7411,-2.41696 2.08967,0.84216 2.08968,0.84216 17.89316,-9.22929 17.89316,-9.22933 7.98009,-6.41778 7.98008,-6.41776 7.75159,-11.9605 c 4.26336,-6.57827 7.88235,-11.92794 8.04218,-11.88816 0.15983,0.0398 0.63423,1.16662 1.05422,2.5041 l 0.7636,2.43172 -6.5512,9.45641 -6.55121,9.45643 -16.7156,11.61179 -16.71558,11.61178 -9.8114,5.07439 c -5.39627,2.79088 -9.80383,5.15258 -9.79458,5.24818 0.0261,0.27048 55.22035,30.55592 55.41018,30.40399 0.0926,-0.0741 1.26915,-3.27484 2.61459,-7.11273 z m 15.70451,-10.3644 c 5.19333,-16.63662 5.63153,-17.86445 7.61414,-21.33484 8.34676,-14.61028 19.49034,-25.43808 30.01384,-29.16341 l 2.03854,-0.72164 2.33903,0.67961 c 6.84269,1.98812 11.32587,5.72833 13.51162,11.27239 1.00369,2.5458 1.3509,8.11518 0.73639,11.81154 -0.84972,5.11115 -4.15263,13.77176 -6.88303,18.04809 -0.64311,1.00724 -6.46006,18.92029 -6.46006,19.89347 0,0.13773 1.09365,0.25149 2.43034,0.25279 1.33669,0 3.87073,0.13444 5.6312,0.29589 1.76047,0.16142 3.25426,0.25077 3.31952,0.19851 0.0653,-0.0523 1.00491,-3.3304 2.08808,-7.28482 1.08318,-3.95443 3.1134,-11.12471 4.5116,-15.93399 l 2.54217,-8.74407 0,-11.33512 0,-11.33509 -3.69052,-4.71391 c -3.26708,-4.17301 -4.10365,-5.02122 -7.29104,-7.39256 -1.98029,-1.47328 -3.65834,-2.80844 -3.72902,-2.96702 -0.13374,-0.30005 1.04149,-1.56091 9.47282,-10.16319 5.19278,-5.29807 7.08989,-7.04309 25.40892,-23.372 11.81849,-10.53456 19.72183,-16.82861 22.13436,-17.62735 l 1.53136,-0.50697 -2.7373,-1.78921 c -1.50552,-0.98408 -2.82211,-1.7524 -2.92575,-1.70741 -0.10366,0.045 -3.15701,1.48068 -6.78529,3.1904 l -6.59684,3.10861 -15.9397,13.43005 c -8.82031,7.43159 -21.41463,18.45037 -28.19757,24.67006 -10.51648,9.64321 -13.24114,11.95649 -19.1793,16.28357 -5.75135,4.19096 -8.15251,6.21292 -14.20362,11.9605 l -7.28218,6.91691 -3.15622,7.49333 c -1.73593,4.12133 -3.53337,8.33113 -3.9943,9.35509 -0.46095,1.02399 -0.81954,1.93184 -0.79688,2.01744 0.0781,0.29485 -0.90021,3.6534 -4.99326,17.14319 -2.25772,7.44098 -3.98224,13.62189 -3.83225,13.73532 0.26821,0.20281 6.76763,1.90752 7.4767,1.96101 0.19967,0.015 2.84273,-7.91627 5.8735,-17.62517 z m 103.74522,-3.96281 c 1.28595,-1.40909 4.76152,-4.39991 8.18167,-7.04056 4.45058,-3.43623 8.85729,-7.35239 17.52174,-15.57124 6.36667,-6.03921 11.76498,-11.17171 11.99624,-11.40553 0.23126,-0.23382 0.83171,-2.43492 1.33433,-4.89132 0.77407,-3.78298 3.10782,-12.99245 3.65142,-14.40923 0.13246,-0.34525 -1.08422,-0.65909 -6.04066,-1.55829 -3.4136,-0.61927 -6.75254,-1.24571 -7.41987,-1.39206 -2.5902,-0.56803 -0.32946,-0.71498 5.35392,-0.34799 3.26746,0.21097 6.70849,0.39096 7.64673,0.39994 l 1.70589,0.0165 12.51612,-9.33173 c 13.75079,-10.25221 16.11722,-12.13422 16.38057,-13.02734 0.16951,-0.57476 -0.459,-0.69258 -15.16568,-2.84354 l -15.34254,-2.24393 -2.97477,-1.42893 -2.97478,-1.42895 -3.21784,2.35415 c -2.93291,2.14566 -3.2535,2.48571 -3.62056,3.84016 -0.22149,0.81731 -1.66923,6.7643 -3.2172,13.21551 -3.13161,13.05112 -2.43217,11.4764 -6.90196,15.53931 -1.11328,1.01195 -7.22966,7.98909 -13.59193,15.50475 l -11.56777,13.66477 0,6.49181 c 0,6.14957 0.0672,6.79661 1.27312,12.27357 0.70022,3.17997 1.35363,5.96556 1.45201,6.19021 0.21873,0.49943 0.22715,0.49225 3.0218,-2.56998 z m 16.15495,-52.33226 4.94923,-4.71946 3.73787,-11.46253 c 2.05583,-6.30443 3.82084,-11.65711 3.92225,-11.89487 0.18987,-0.44519 -6.01905,4.20611 -16.61391,12.446 l -6.04606,4.70217 -5.17898,14.43751 c -4.74229,13.22012 -5.22673,14.78755 -5.74522,18.5892 -0.31143,2.28342 -0.65081,4.67048 -0.75419,5.30452 -0.14646,0.89835 1.68484,-1.47806 8.2959,-10.76513 8.36773,-11.75483 8.55159,-11.98255 13.43311,-16.63741 z m 31.22514,10.11026 c 9.46026,-9.48508 13.49899,-13.15756 22.23225,-20.21621 l 8.96628,-7.24699 -0.43772,-2.56388 c -0.63931,-3.74475 -0.43547,-4.05653 1.28387,-1.96365 l 1.42059,1.72923 4.22041,-3.64077 4.2204,-3.64075 -2.24012,0.10451 c -1.23206,0.0575 -3.9665,0.15733 -6.07648,0.22191 l -3.83634,0.11745 -14.94471,11.9675 -14.94471,11.9675 -2.55198,8.83264 c -1.40358,4.85795 -2.55197,8.98064 -2.55197,9.16151 0,0.43305 -0.11205,0.53635 5.24023,-4.82997 z m 64.42966,-42.23868 c 12.67381,-2.07732 23.77238,-3.87802 24.6635,-4.00155 0.89113,-0.12355 12.55679,-3.04445 25.92368,-6.49095 l 24.30345,-6.26632 11.88169,-5.12509 c 16.75512,-7.22719 17.98192,-7.82926 18.64708,-9.1513 0.48165,-0.95737 1.12304,-1.34685 5.53097,-3.35877 5.84862,-2.66949 7.92011,-4.05812 13.88309,-9.30665 8.93701,-7.8662 18.23461,-18.03327 23.86765,-26.09959 1.18817,-1.70143 2.25337,-3.09472 2.36716,-3.09619 0.11373,-0.003 1.24789,0.72192 2.52036,1.60758 5.42257,3.77427 10.05575,6.09166 13.69688,6.85083 1.79568,0.37437 2.53462,0.35867 7.54537,-0.16045 3.05511,-0.3165 7.74204,-0.60548 10.41542,-0.6422 5.44915,-0.0748 8.20953,-0.55252 14.70611,-2.54502 13.94823,-4.27788 28.83299,-12.94864 37.96846,-22.11753 2.78212,-2.79233 13.05167,-15.28614 16.46423,-20.03023 5.17509,-7.19428 9.41329,-15.00258 10.56885,-19.47168 0.29692,-1.14839 0.69269,-2.16535 0.87948,-2.25991 0.78921,-0.39962 1.62593,-3.19339 1.77906,-5.94016 0.28361,-5.08721 -1.27174,-9.81251 -5.50072,-16.71177 -1.26309,-2.06067 -3.43205,-5.13919 -4.81983,-6.84115 -2.45572,-3.01163 -2.62732,-3.14939 -6.41009,-5.14622 -5.76957,-3.04563 -9.71548,-4.50383 -15.65067,-5.78375 -3.94961,-0.85173 -11.82562,-0.92219 -15.41997,-0.13796 -9.79264,2.13658 -18.85027,8.79214 -24.74639,18.18368 -0.90034,1.43409 -4.05951,7.92482 -7.02035,14.42383 -6.21733,13.64693 -7.91108,17.05143 -10.46496,21.03482 -3.9086,6.09643 -8.94392,10.96014 -12.74019,12.30598 -2.31812,0.82179 -5.28105,0.85361 -6.9576,0.0747 -1.13916,-0.52923 -1.51192,-1.07959 -3.90176,-5.76031 l -2.64224,-5.17518 -0.18791,-8.64615 -0.1879,-8.64614 -1.38217,-1.15282 c -1.57335,-1.31228 -2.90252,-3.47019 -3.81665,-6.1964 -0.469,-1.39872 -0.6325,-3.04163 -0.64532,-6.48461 l -0.0173,-4.61127 6.2487,-8.60047 6.24871,-8.60045 5.49762,-11.45049 5.49763,-11.45048 1.90474,-10.06645 1.90471,-10.06645 -0.37014,-4.32308 -0.37013,-4.32307 -1.83187,-2.92104 c -1.56215,-2.49101 -2.00667,-2.97172 -3.01946,-3.26535 -1.52503,-0.44216 -26.06997,-7.24338 -40.07311,-11.10397 -5.94085,-1.63785 -10.84934,-2.94013 -10.90775,-2.89395 -0.0584,0.0462 0.0869,0.6979 0.32293,1.44828 0.82168,2.61198 -0.19334,10.20279 -2.23553,16.71859 -1.31475,4.19483 -1.43274,4.48582 -1.75442,4.3267 -0.17552,-0.0869 -2.04533,-2.36226 -4.15516,-5.05651 -4.49366,-5.73836 -7.80922,-9.25637 -11.63328,-12.34365 -8.60598,-6.94781 -17.55869,-9.66287 -29.44567,-8.92989 -11.56146,0.71291 -25.64508,5.10182 -39.78025,12.39679 -2.09852,1.08302 -3.88887,1.96914 -3.9786,1.96914 -0.38389,0 0.4762,-4.91294 1.2816,-7.32055 2.09979,-6.27683 4.93309,-10.29165 10.29307,-14.58531 2.83076,-2.26762 4.6258,-3.42389 7.14503,-4.60252 3.88114,-1.81578 4.28602,-1.46528 -3.36449,-2.91249 -20.35146,-3.84978 -39.46405,-7.66863 -52.56746,-10.50339 -14.43654,-3.12317 -16.11446,-3.42265 -24.84353,-4.43401 -5.14873,-0.59654 -9.41664,-1.05057 -9.48425,-1.00893 -0.0676,0.0416 0.36513,1.86871 0.96169,4.06018 1.056,3.8794 1.09607,4.31358 1.52011,16.45977 0.23954,6.86139 0.36938,12.52821 0.2885,12.59294 -0.0808,0.0647 -1.01664,-1.13032 -2.07951,-2.65566 -4.59991,-6.60136 -11.63263,-14.07754 -17.01912,-18.0922 -7.25224,-5.40528 -14.93085,-8.796 -19.03764,-8.40667 -4.00008,0.37922 -10.1877,3.91488 -18.60007,10.62827 -2.81711,2.24815 -5.19965,4.02541 -5.29453,3.94945 -0.0949,-0.0759 0.0561,-0.65189 0.33552,-1.27987 0.27944,-0.62799 0.51518,-1.47835 0.52387,-1.8897 0.009,-0.41134 1.32423,-4.87201 2.92344,-9.91258 2.22523,-7.01377 2.80145,-9.21721 2.45516,-9.38853 -0.95596,-0.47291 -5.16676,-0.91384 -7.46234,-0.7814 -3.7034,0.21365 -6.66276,1.66679 -8.45635,4.15234 -0.12939,0.1793 -0.86705,2.96769 -1.63922,6.1964 -1.78748,7.47429 -5.38047,17.82269 -14.39626,41.46369 -3.95953,10.38257 -8.43777,22.76817 -9.95163,27.52356 l -2.75249,8.64614 -1.46902,1.15281 c -0.80796,0.63406 -1.68784,1.57016 -1.95527,2.08023 -0.56419,1.07606 -0.63908,3.0361 -0.14369,3.75983 0.18841,0.27525 1.0132,1.79737 1.83287,3.38249 3.78483,7.31937 8.48674,12.15631 12.60429,12.96619 0.87536,0.17221 0.95643,0.0797 1.75498,-2.00362 2.36747,-6.17632 8.49953,-12.62108 15.8264,-16.6335 2.55479,-1.39907 2.81094,-1.62143 2.44762,-2.1248 -0.58098,-0.80498 -0.41879,-6.8441 0.286,-10.64937 2.90672,-15.69368 9.80676,-30.41692 18.36912,-39.19585 3.91828,-4.01738 6.93553,-5.96039 12.54137,-8.07626 4.72024,-1.7816 7.22132,-2.2513 12.12589,-2.27722 4.79362,-0.0254 6.557,0.29687 10.52756,1.92361 6.72108,2.75362 12.33971,9.17071 16.16126,18.45784 l 1.39876,3.39926 -0.36714,4.67048 c -0.59402,7.55623 -2.34135,18.17968 -4.07045,24.74734 l -0.50548,1.91996 3.81993,0.76579 c 19.12962,3.83495 35.03041,10.70676 43.06236,18.61016 l 2.21233,2.17694 0.41611,-3.32977 c 1.27492,-10.20142 4.70558,-20.73307 9.27863,-28.48396 3.6251,-6.14418 8.68843,-11.45557 13.98841,-14.6736 4.32901,-2.62849 14.05471,-5.7488 21.45437,-6.88323 5.01566,-0.76896 12.82851,-0.71517 17.05069,0.11737 10.04687,1.98107 17.58173,6.7808 23.3769,14.89115 1.27771,1.78814 2.06374,3.49959 3.50199,7.625 l 1.85455,5.31933 0.043,5.63244 c 0.0464,6.09279 -0.51214,9.94742 -2.44572,16.87605 -4.10465,14.70827 -12.65291,25.6819 -24.2403,31.11793 -5.12929,2.40634 -10.80895,3.31335 -20.76133,3.31545 -12.91169,0.003 -21.92258,-2.54548 -29.47282,-8.3347 -2.15134,-1.64957 -6.71232,-6.59603 -6.71232,-7.27963 0,-0.55116 -5.21869,-9.42565 -6.33622,-10.77485 -4.22509,-5.10102 -11.72311,-10.43336 -21.55633,-15.33013 -4.96629,-2.47313 -15.51795,-6.64148 -22.33458,-8.8231 -6.0471,-1.93535 -6.22068,-1.97107 -14.40204,-2.96385 -8.06176,-0.97827 -8.49583,-1.00112 -16.38233,-0.86217 -8.16158,0.14379 -12.36041,0.52 -18.36261,1.6453 -7.78848,1.46017 -16.15551,4.32177 -22.46096,7.68185 -7.1074,3.78743 -14.41918,10.29145 -17.91972,15.94009 -0.98896,1.59583 -1.90075,2.65388 -2.60778,3.02615 -0.59792,0.31481 -1.56441,1.11689 -2.14776,1.78238 -1.04334,1.19028 -1.0753,1.34058 -1.96083,9.22255 l -0.90019,8.01255 0.79022,3.13881 c 2.35371,9.34908 8.76367,19.87273 17.23949,28.30321 4.55813,4.53375 7.81802,6.79428 14.16359,9.82164 14.59552,6.96332 27.24872,11.06424 40.94538,13.27047 4.493,0.72375 5.63015,0.79335 13.02398,0.7971 11.81292,0.006 15.49099,-0.72455 26.8238,-5.32753 12.06165,-4.89899 21.15639,-9.70469 27.38193,-14.46871 5.03952,-3.85644 6.15818,-5.36058 9.33638,-12.55357 2.349,-5.3164 2.70693,-6.38434 2.70455,-8.06974 -0.003,-2.66288 -0.6217,-5.50358 -1.43966,-6.61773 -0.37755,-0.51423 -0.53281,-1.00228 -0.34795,-1.09373 0.37071,-0.18338 3.62978,3.26551 6.74505,7.13797 1.1158,1.38698 2.28025,2.52257 2.58758,2.52349 0.30737,0 7.20182,0.51707 15.32097,1.14697 l 14.7621,1.14526 14.66268,-3.33261 c 14.23112,-3.23454 14.9512,-3.43316 24.46554,-6.74899 l 9.80283,-3.41635 0.82041,0.96644 c 1.23105,1.45015 2.51766,4.82224 3.15185,8.26072 0.76173,4.13015 1.06884,12.42762 0.64917,17.53991 -0.29502,3.5941 -0.5238,4.60944 -1.6347,7.25455 -2.26872,5.40191 -4.72171,8.71056 -9.22462,12.4422 -5.60711,4.64679 -13.02423,7.6447 -22.21576,8.97934 -4.54626,0.66013 -12.4877,0.86649 -17.48275,0.45424 -3.94454,-0.32552 -4.27691,-0.31227 -5.57492,0.22215 -0.77995,0.32111 -1.57526,0.93061 -1.82856,1.40133 -0.83593,1.55351 -4.32724,4.60197 -9.12308,7.96587 -2.62823,1.84353 -4.84406,3.29948 -4.92403,3.23547 -0.0799,-0.0639 -1.46886,0.39006 -3.08646,1.00898 -4.55022,1.74104 -7.90561,2.3423 -13.20254,2.3657 -2.47535,0.0109 -5.47277,-0.14179 -6.66094,-0.33942 -6.41993,-1.06783 -13.17085,-3.30551 -18.74196,-6.21231 l -3.10594,-1.62057 -2.40238,1.81174 c -2.50875,1.89192 -8.64298,5.36827 -11.7845,6.67842 -5.43642,2.26725 -14.70218,2.10934 -23.94809,-0.40813 -4.38192,-1.1931 -12.83782,-4.43832 -17.24229,-6.61723 l -3.46411,-1.71372 -2.27975,0.55251 c -3.8992,0.94499 -7.28505,1.24975 -11.81456,1.06339 -2.32677,-0.0957 -4.71655,-0.24063 -5.31064,-0.32202 -1.5233,-0.20862 6.89941,2.02807 18.54264,4.92413 12.34608,3.07085 21.6242,4.98009 24.97261,5.13881 1.4142,0.067 13.50786,1.56999 26.87475,3.33991 13.3669,1.7699 25.00584,3.28648 25.86431,3.37016 l 1.56085,0.15211 -0.2427,1.0405 c -0.317,1.35894 -2.2342,4.66561 -3.94991,6.81247 -5.0126,6.27235 -15.53328,11.60226 -27.82446,14.09618 -12.22359,2.48024 -21.66132,2.63569 -34.59512,0.56988 -23.54134,-3.76007 -40.76087,-15.69382 -48.13151,-33.35688 -1.17744,-2.82165 -3.17847,-9.70184 -2.88905,-9.93353 0.0647,-0.0517 1.62573,0.30057 3.46902,0.783 1.98679,0.51998 3.43875,0.76397 3.56594,0.59924 0.28976,-0.37528 2.25036,-0.14575 4.82786,0.56516 3.14703,0.86802 3.23103,0.7061 0.28338,-0.54632 -3.54081,-1.50443 -7.52864,-3.99192 -10.37962,-6.47449 -2.48754,-2.16608 -7.0757,-7.46122 -8.45427,-9.75694 l -0.82206,-1.36897 -3.43875,0 c -17.12411,-0.004 -28.38581,-5.83937 -33.10836,-17.1553 -1.15737,-2.77323 -2.19108,-7.20112 -2.19347,-9.39565 l -0.001,-1.33381 -2.20959,-0.66146 c -5.8672,-1.75636 -12.84629,-6.5998 -17.61656,-12.22582 l -1.41688,-1.67185 0,1.70013 c 0,0.93507 -0.17047,4.71046 -0.37884,8.38975 -0.37417,6.60712 -0.36747,6.73733 0.54304,10.55541 1.8706,7.84406 5.58274,18.91695 8.80166,26.25433 3.56452,8.12516 9.52601,18.41126 12.05461,20.79936 0.6497,0.61362 7.76062,8.59746 15.80204,17.74191 9.37312,10.65882 17.16666,19.17159 21.71408,23.7179 l 7.09331,7.0916 8.32631,5.28697 c 7.40253,4.70038 26.80945,15.43768 27.90256,15.43768 0.19075,0 4.12486,1.11495 8.74247,2.47764 l 8.39566,2.47765 12.96184,1.72576 c 8.67201,1.15458 14.57055,1.79056 17.82253,1.92164 2.67338,0.10773 5.02271,0.16465 5.22074,0.12648 0.19802,-0.0382 10.72953,-1.76905 23.40332,-3.84637 z M 598.8289,368.7987 c -13.68403,-1.57071 -16.24997,-10.75876 -7.39282,-26.47221 3.34152,-5.9282 9.30714,-14.09707 14.80457,-20.27224 1.90601,-2.14098 3.29682,-3.31213 6.00105,-5.05326 6.78581,-4.36916 12.38612,-7.3317 18.40081,-9.734 13.61588,-5.43825 23.22802,-4.69843 28.2378,2.17335 4.9593,6.80249 5.19208,23.93451 0.43289,31.85486 -1.2165,2.0245 -4.20597,5.04459 -4.65003,4.69768 -0.12345,-0.0964 0.11169,-0.80308 0.52255,-1.5703 2.54912,-4.7602 4.16593,-11.74253 3.83349,-16.55532 -0.67127,-9.71792 -6.92482,-15.8029 -19.40981,-18.88655 -2.22687,-0.55001 -3.51514,-0.72146 -4.41059,-0.58699 -2.05171,0.30809 -8.04556,2.86015 -12.27406,5.22608 -4.46457,2.49798 -11.28174,6.78961 -11.30115,7.11439 -0.008,0.11889 0.35491,0.21616 0.80447,0.21616 1.13675,0 5.744,1.04643 8.526,1.93653 3.44,1.10059 6.42216,2.58499 8.74313,4.35192 2.53577,1.93051 3.93985,3.65651 4.9659,6.10435 0.6877,1.64066 0.76495,2.32079 0.62224,5.47589 -0.14749,3.26052 -0.30241,3.93604 -1.63198,7.11508 -1.75752,4.20228 -4.66874,8.84566 -9.07264,14.47082 -1.78675,2.28223 -3.24862,4.27797 -3.24862,4.43495 0,0.15699 -0.6827,0.87827 -1.51712,1.60285 -1.20671,1.04791 -1.77757,1.32712 -2.79039,1.36476 -0.7003,0.0259 -2.68371,0.25429 -4.40757,0.50725 -3.87523,0.56863 -10.90181,0.81524 -13.78812,0.48395 z m 13.09567,-3.03762 3.82673,-0.43741 2.76094,-2.29281 c 1.51856,-1.26104 3.74288,-3.46785 4.94296,-4.90398 6.91338,-8.27321 8.57193,-15.89276 4.99848,-22.96397 -1.10142,-2.17958 -4.07469,-5.97812 -5.7091,-7.29377 -1.4423,-1.16101 -5.41172,-2.82491 -9.19906,-3.85602 -2.48774,-0.67728 -2.5254,-0.67874 -3.81871,-0.14764 -3.0896,1.26879 -7.47458,5.24964 -10.68991,9.70474 -3.223,4.46579 -7.54624,13.31639 -9.39082,19.22504 -2.13557,6.84075 1.01758,11.42179 8.91642,12.95427 2.78301,0.53992 8.69476,0.54505 13.36207,0.0116 z m -415.63138,69.68206 c 8.00575,-7.86879 14.03189,-16.45722 16.53398,-23.5642 1.05156,-2.98687 2.00965,-7.8732 2.0019,-10.20996 -0.0193,-5.82535 -4.21953,-10.97449 -11.34308,-13.90577 -3.49157,-1.43673 -8.056,-2.69376 -10.84911,-2.98776 l -1.74588,-0.18379 -7.50323,8.58352 c -5.50371,6.29608 -8.12852,9.58635 -9.84962,12.34672 -1.83009,2.93511 -3.57491,5.079 -7.92921,9.7427 -6.41341,6.8691 -6.16975,6.18407 -3.67088,10.3203 5.32464,8.81356 14.15853,13.12893 27.0527,13.21533 l 3.86059,0.0259 3.44184,-3.38296 z m 370.47107,-8.70943 c 7.59945,-1.66289 13.12843,-5.24236 15.1373,-9.80003 1.07504,-2.43894 1.37241,-5.08102 0.90675,-8.05648 -0.44829,-2.86432 -2.38839,-8.02477 -4.20118,-11.17453 -1.01225,-1.75878 -1.11939,-1.83549 -7.7484,-5.54794 -3.69705,-2.07047 -6.81484,-3.76447 -6.92837,-3.76447 -0.11355,0 -0.20644,0.16586 -0.20644,0.36858 0,0.52102 -3.78738,5.14518 -7.07432,8.63724 -3.99355,4.24281 -12.22637,12.38848 -19.54416,19.33724 -3.47942,3.30395 -6.37286,6.10709 -6.42986,6.22917 -0.27788,0.59506 11.69133,3.37856 17.92618,4.16883 5.0412,0.63895 14.35733,0.43501 18.1625,-0.39761 z M 373.93079,416.18818 c 13.99602,-1.63173 24.94229,-5.41828 31.02574,-10.73252 1.98479,-1.73384 4.17545,-4.29635 3.87703,-4.53518 -0.0725,-0.0581 -0.7754,0.0141 -1.56197,0.16032 -0.78653,0.14624 -4.06484,0.41971 -7.28506,0.60777 -13.46864,0.78645 -43.1114,-1.46682 -54.08836,-4.1115 -6.73816,-1.62346 -13.7906,-3.75292 -18.98715,-5.73315 l -4.39991,-1.67665 -0.21411,0.91355 c -0.64204,2.73945 2.44579,9.23679 7.22793,15.20888 1.46032,1.8237 1.68985,1.97141 5.43588,3.49814 7.33884,2.99102 15.94565,5.11719 25.27838,6.24465 5.69187,0.68763 8.82356,0.72322 13.6916,0.15569 z m 35.13663,-17.24876 c 1.3782,-0.25144 3.04308,-0.5991 3.69967,-0.77257 1.36679,-0.36106 3.33598,-1.59651 3.33565,-2.09274 -1.4e-4,-0.22638 -5.214,-0.82671 -16.11848,-1.85592 -13.59319,-1.28298 -19.05034,-1.9511 -34.83472,-4.26485 l -18.71647,-2.7436 -18.59504,-4.88562 c -10.22727,-2.68711 -19.09803,-4.88565 -19.71279,-4.88565 -0.61478,0 -1.11776,0.15034 -1.11776,0.33406 0,0.18376 0.62551,0.99725 1.39004,1.8078 4.96897,5.26809 17.98012,10.65668 36.56289,15.14259 7.39641,1.78551 20.49114,3.36932 35.67752,4.3152 2.7724,0.17267 5.68881,0.36228 6.48091,0.42133 0.79212,0.0591 5.49079,0.069 10.44149,0.0222 6.60103,-0.0625 9.66946,-0.20705 11.50709,-0.54232 z m -30.23608,-14.57567 c 0.78862,-0.14633 1.49072,-0.40263 1.5602,-0.56953 0.0695,-0.16689 0.43157,-0.30345 0.80457,-0.30345 0.37299,0 4.20753,-2.05484 8.52119,-4.56628 4.31366,-2.51147 8.3852,-4.71385 9.04779,-4.89415 1.15055,-0.31311 1.35326,-0.24916 4.50065,1.41984 6.20375,3.28966 13.89328,5.8145 20.13589,6.61156 3.61444,0.4615 9.80995,0.20471 12.68417,-0.52572 4.04524,-1.02803 5.84208,-1.98994 10.51284,-5.62794 5.49766,-4.282 9.36284,-8.29601 10.38158,-10.78125 0.014,-0.0346 1.06582,0.18915 2.33698,0.49721 7.01026,1.699 16.33843,1.88742 23.15658,0.46779 4.51392,-0.9399 10.05864,-3.07014 13.74056,-5.27902 3.49389,-2.09611 8.32905,-6.08991 10.24395,-8.46144 5.77713,-7.15477 6.97538,-19.57866 3.20219,-33.20231 -0.42804,-1.54549 -0.88486,-2.80999 -1.01516,-2.80999 -0.33072,0 -24.35138,8.02678 -29.85685,9.97701 l -4.52354,1.60239 -10.62834,0.58834 -10.62839,0.58838 -12.06172,-0.77116 c -6.63394,-0.42415 -12.7908,-0.84121 -13.68194,-0.92681 l -1.62022,-0.15566 -2.1322,5.51746 -2.13218,5.51744 -10.9547,8.55718 -10.95469,8.55717 -7.43603,2.82133 c -12.09501,4.58896 -16.24496,5.76954 -24.06661,6.84641 -16.87668,2.32354 -37.02822,-0.54133 -55.37964,-7.87306 -5.00927,-2.00132 -6.1104,-2.60102 -15.65968,-8.52893 l -8.43649,-5.23708 -6.7348,-7.4965 c -6.71475,-7.47418 -6.73699,-7.50398 -7.47033,-10.00969 -0.40454,-1.38226 -1.59096,-5.30159 -2.63647,-8.70961 l -1.90097,-6.1964 0.0271,-5.61999 c 0.0287,-5.94878 0.54493,-9.29153 1.93222,-12.50999 1.07381,-2.49125 0.98536,-3.65692 -0.32269,-4.25261 -2.13962,-0.97433 -5.8629,-5.53747 -10.80526,-13.2426 l -3.44049,-5.36369 -5.40076,4.01681 -5.40077,4.01681 -0.36471,2.66015 c -0.31711,2.313 -0.51192,2.80897 -1.49268,3.80019 -0.6204,0.62698 -2.90715,3.73225 -5.08168,6.90054 l -3.95369,5.76055 -0.21986,4.14507 -0.21986,4.14508 1.04915,0.9565 c 1.00394,0.91525 1.04093,1.04713 0.85842,3.06004 -0.48274,5.32418 2.96223,10.74615 9.00942,14.17967 2.33198,1.3241 6.10557,2.91223 8.95108,3.7671 1.62045,0.48683 1.70428,0.56753 1.91518,1.84371 2.20736,13.35667 8.89382,21.60832 20.00912,24.69291 2.86949,0.79629 3.34165,0.84029 9.19232,0.85647 l 6.16745,0.017 1.31083,0.80031 c 0.85897,0.52444 1.68361,1.45841 2.39226,2.70944 1.79247,3.16438 5.42855,7.24138 8.67799,9.73034 4.70718,3.60556 8.66807,5.45975 14.60573,6.83738 4.01197,0.93081 12.84103,0.92637 17.50477,-0.009 4.77293,-0.9571 6.17927,-0.87513 8.63796,0.5035 7.34721,4.11974 16.65047,7.57552 23.6482,8.78433 2.70975,0.46808 7.81664,0.55595 9.89507,0.17025 z m 198.3519,-36.77566 c 4.39777,-1.72368 7.7201,-5.65235 9.89809,-11.70447 0.60953,-1.69376 1.93722,-4.74152 2.95044,-6.77282 1.8969,-3.80292 8.10204,-16.7864 10.0985,-21.12967 2.98993,-6.50472 8.32816,-13.36533 13.79957,-17.73502 6.37496,-5.09131 12.16519,-7.49413 19.8903,-8.25405 l 3.32183,-0.32679 0.53281,-1.90076 c 0.68835,-2.45568 1.85844,-7.57506 2.44356,-10.69102 0.61979,-3.30045 0.62512,-11.10239 0.009,-12.27117 -0.4187,-0.79353 -3.35736,-2.09399 -27.86233,-12.33004 -15.06688,-6.29361 -27.45945,-11.39079 -27.53909,-11.32703 -0.0796,0.0637 0.19505,0.80605 0.6104,1.64955 2.1121,4.2892 3.00503,10.99791 2.18414,16.41 -0.53435,3.52301 -2.14094,8.35768 -3.92809,11.82091 -0.77583,1.50338 -3.39309,6.97285 -5.81612,12.15437 l -4.40554,9.42099 -7.2034,10.32104 -7.20343,10.32107 0.56196,5.82244 c 0.6086,6.30542 0.81919,6.91556 2.88923,8.37041 2.84026,1.99614 6.15568,1.98204 11.21087,-0.0477 3.69925,-1.48532 6.26159,-2.97145 10.58843,-6.14124 2.96933,-2.17531 3.03029,-2.20295 2.7967,-1.26802 -0.13135,0.52567 -0.71972,1.75414 -1.3075,2.72994 -3.26497,5.42041 -9.44687,8.69872 -17.89544,9.49009 -2.64447,0.24771 -3.36399,0.41162 -3.3659,0.76675 -0.007,1.30879 4.14541,22.99164 4.46751,23.32844 0.67113,0.70174 5.79844,0.26414 8.27412,-0.70619 z m -133.28509,-38.6703 c -8.15138,-6.50132 -12.1627,-13.28499 -12.56862,-21.25509 -0.28628,-5.62063 1.10341,-10.47368 4.58035,-15.99537 2.94176,-4.6718 9.55979,-11.74582 12.70318,-13.57847 7.02729,-4.09703 15.68191,-6.65509 22.55774,-6.66743 6.42295,-0.0116 10.08745,1.19623 14.61965,4.81837 2.48299,1.9844 3.19308,2.79089 4.95841,5.63136 1.90817,3.07035 2.10249,3.57066 2.63022,6.77188 1.02377,6.20999 0.32256,16.01547 -1.48662,20.78889 -1.19904,3.16351 -0.12811,1.84592 1.81869,-2.23756 3.48428,-7.30845 5.15791,-16.72411 4.70666,-26.47882 -0.33762,-7.29784 -1.71017,-11.5098 -5.32494,-16.34047 -1.597,-2.1342 -5.65118,-5.59048 -8.36585,-7.13206 -5.96772,-3.38893 -15.21523,-5.87369 -22.09512,-5.93685 -2.70143,-0.0249 -7.42919,0.90415 -11.91222,2.34063 -20.3241,6.51233 -33.42477,23.95432 -36.05217,47.99907 -0.4056,3.71185 -0.39642,3.82238 0.49377,5.94503 4.44833,10.60709 13.55881,18.94892 24.62649,22.54874 1.82334,0.59303 6.84605,1.8013 7.72724,1.85886 0.14719,0.01 -1.48039,-1.37669 -3.61686,-3.08071 z m 15.25039,1.79051 c 8.37822,-1.16951 16.01872,-4.36169 21.34178,-8.91657 2.82403,-2.41648 4.06357,-3.88926 6.00342,-7.13309 2.94735,-4.92851 4.44206,-10.44126 4.74908,-17.51542 0.54018,-12.44522 -4.73787,-19.99468 -15.91145,-22.75897 -8.31732,-2.05767 -20.16488,1.25177 -27.53758,7.69222 -5.57106,4.86666 -10.18721,12.79596 -12.07657,20.7445 -0.59334,2.49605 -0.59535,2.84619 -0.0342,5.96944 2.18018,12.13293 7.62683,19.45844 16.24021,21.84255 2.24517,0.62146 3.23871,0.6318 7.22523,0.0753 z m -3.34094,-10.21211 c -4.88402,-0.92885 -7.41169,-6.04803 -7.90212,-16.00374 l -0.21293,-4.32308 1.95753,-3.05992 c 3.78011,-5.90877 8.97747,-10.71542 13.39559,-12.38847 1.78261,-0.67505 2.69009,-0.83477 4.74396,-0.83495 7.16991,-5.7e-4 11.25343,4.92971 12.4519,15.03421 0.46389,3.91113 0.3054,4.66787 -1.79399,8.56575 -3.62949,6.73881 -9.80282,11.36784 -17.1438,12.85523 -2.30349,0.46672 -3.65632,0.50485 -5.49614,0.15497 z m 6.36394,-3.10708 c 7.63089,-2.41074 12.84609,-6.79794 14.21478,-11.9579 0.26309,-0.99186 0.76186,-2.57508 1.10838,-3.51825 0.78535,-2.13754 0.57608,-5.19521 -0.55253,-8.07331 l -0.78689,-2.00664 -0.48334,1.12537 c -0.26583,0.61895 -0.78048,1.44395 -1.14366,1.83335 -0.94006,1.00785 -4.00464,2.3172 -5.9137,2.52666 -1.47711,0.16206 -1.74949,0.0919 -2.96866,-0.76498 -1.84681,-1.29796 -3.09636,-3.36501 -3.09636,-5.12208 0,-2.03322 1.04331,-3.13566 4.14059,-4.37528 l 2.52035,-1.00871 -1.50386,-0.0876 c -3.99722,-0.23282 -9.71223,4.30799 -14.81463,11.77083 -3.97021,5.80692 -2.52864,15.5413 2.87778,19.43218 2.10533,1.51515 2.30044,1.52206 6.40175,0.22635 z m -211.94447,-31.01089 2.42424,-5.80677 -0.006,-7.89149 -0.006,-7.89149 6.84097,-12.4836 c 3.76253,-6.86597 6.84097,-12.5698 6.84097,-12.67517 0,-0.4158 -2.85081,0.2568 -5.65109,1.33329 -7.71551,2.96602 -13.18462,9.79133 -15.22609,19.00182 -0.3689,1.66439 -0.84384,3.47553 -1.05543,4.02478 -0.85697,2.2246 -1.20923,8.83023 -0.97874,18.35326 0.12717,5.25413 0.32965,9.94694 0.44997,10.42849 l 0.21876,0.87554 1.86188,-0.73093 1.86187,-0.73094 2.42424,-5.80679 z m 11.4786,-5.12788 c 5.68437,-14.04241 29.28959,-75.85674 30.14867,-78.94952 0.20166,-0.72597 0.46627,-1.52776 0.58803,-1.78174 0.31436,-0.65575 -2.31828,-1.99952 -3.91735,-1.99952 -0.67968,0 -1.66651,0.2259 -2.19295,0.50201 -1.83595,0.96291 -3.67172,4.36509 -3.95904,7.33716 -0.10267,1.06258 -1.69011,5.05295 -4.81527,12.1046 -2.56413,5.7857 -5.03194,11.75154 -5.48405,13.25741 -0.45211,1.50588 -4.21079,10.19524 -8.35263,19.30972 l -7.53063,16.57178 0.41846,4.89947 0.41846,4.89948 -1.82304,4.86159 c -1.00266,2.67388 -1.91996,5.10606 -2.03844,5.40485 -0.15637,0.39438 0.80273,0.0379 3.49978,-1.30064 l 3.71519,-1.84392 1.32481,-3.27273 z m 49.92312,0.63284 c 1.45256,-0.3736 3.42675,-0.69189 4.38709,-0.7073 l 1.74608,-0.028 0.40041,-1.87333 c 1.06105,-4.96428 3.80925,-11.84178 6.39165,-15.99536 4.54981,-7.31803 11.44203,-12.72006 18.7562,-14.70083 5.66384,-1.53384 13.16774,-1.63858 18.84672,-0.26303 0.55325,0.13401 0.56179,0.008 0.10598,-1.55502 -2.25226,-7.72806 -8.1593,-13.61368 -16.81689,-16.7559 -3.99015,-1.4482 -6.51704,-1.84151 -9.25349,-1.44032 -12.67384,1.85814 -23.32791,11.05614 -28.86045,24.91613 -0.82256,2.06067 -1.86515,4.45997 -2.31686,5.33179 -1.77722,3.43005 -3.09157,11.24569 -3.98181,23.67738 l -0.24053,3.35895 4.09741,-1.64292 c 2.25357,-0.90361 5.28587,-1.94861 6.73843,-2.32221 z m 15.4508,-2.56612 c 2.22741,-0.28693 4.09876,-0.576 4.15857,-0.64237 0.0598,-0.0664 0.64908,-1.28791 1.30948,-2.71452 2.57547,-5.5635 6.37834,-10.87265 9.75911,-13.6246 2.66014,-2.16535 4.56996,-2.98421 7.38133,-3.16486 2.08808,-0.13416 2.56295,-0.0562 4.63814,0.76158 2.56641,1.01133 4.98915,2.93632 7.37662,5.86112 l 1.47261,1.80402 0,-8.10781 0,-8.10781 -2.97042,-0.67082 c -4.3284,-0.97749 -10.88424,-0.97435 -14.62733,0.007 -10.16736,2.66567 -18.92743,12.43958 -23.11034,25.78506 -0.40324,1.28653 -0.81714,2.56613 -0.91977,2.84352 -0.23904,0.64613 0.30986,0.6432 5.532,-0.0295 z m 34.56784,-4.9606 1.54095,-5.30459 -1.35667,-0.91476 -1.35664,-0.91475 -0.19576,1.26493 c -0.26378,1.70421 -1.71648,2.88998 -4.26787,3.4837 -2.58243,0.60092 -5.72679,0.37368 -6.5876,-0.4761 -1.77477,-1.75204 -2.82338,-6.45279 -1.78384,-7.99659 0.6206,-0.92163 2.2653,-1.51318 4.26596,-1.53432 1.53612,-0.0162 1.62811,-0.0511 0.82801,-0.31403 -1.54412,-0.50735 -4.1781,-0.36116 -5.84088,0.32419 -3.01142,1.24123 -5.36514,3.51438 -8.00426,7.73028 -1.59413,2.54657 -4.45869,8.85788 -4.13137,9.10239 0.0847,0.0632 1.53117,0.008 3.21441,-0.12282 7.54465,-0.58626 18.65825,-0.13605 20.76156,0.84106 0.3638,0.16902 0.82159,0.26876 1.01729,0.22166 0.19568,-0.0472 1.04922,-2.47272 1.89671,-5.39025 z m 287.4347,-1.20628 c 0.0144,-0.35666 0.29791,-2.85323 0.63009,-5.54794 l 0.60399,-4.89948 1.26018,-0.32558 1.26017,-0.32557 0.23792,-9.03997 c 0.13084,-4.97197 0.11886,-9.10531 -0.0267,-9.18518 -0.1455,-0.0799 -3.90414,-2.30245 -8.3525,-4.93908 l -8.08794,-4.79385 -24.10999,-9.94985 -24.10997,-9.94984 -15.48219,-4.60542 c -8.51521,-2.53297 -32.28099,-9.29405 -52.81287,-15.02459 l -37.33068,-10.41919 -7.82499,3.13437 -7.82495,3.13436 -4.06303,12.05567 c -4.05497,12.03165 -4.06174,12.05716 -3.39457,12.80716 0.56708,0.63747 2.27153,1.15815 11.23331,3.43163 16.75203,4.24973 64.06375,16.57476 87.10197,22.69066 l 21.08932,5.59851 18.69634,8.01861 c 46.95797,20.13963 42.53089,18.33128 45.34012,18.52028 5.4206,0.36466 5.93807,0.3312 5.96695,-0.38571 z m 12.39937,-14.20277 c 2.23667,-1.51064 4.23478,-2.90872 4.44019,-3.10683 0.26549,-0.2561 -0.072,-1.68149 -1.16783,-4.93129 l -1.54127,-4.57108 -8.42847,-7.88037 -8.42848,-7.88037 -2.1603,-0.008 -2.16031,-0.008 -2.32276,-2.66263 -2.32273,-2.66264 -2.44549,-10.63474 -2.44551,-10.63474 -2.33958,-3.53964 c -7.91662,-11.97758 -18.28783,-25.50311 -24.73298,-32.25542 -2.81799,-2.95224 -7.09302,-6.52583 -8.84164,-7.3909 -0.96447,-0.47713 -1.46252,-0.54162 -2.70906,-0.35076 -0.84,0.1286 -1.70888,0.22187 -1.93081,0.20727 -0.22194,-0.0147 -7.05099,-4.06033 -15.17568,-8.99048 l -14.77214,-8.96391 -13.2266,-5.07128 c -7.27461,-2.78921 -13.35425,-4.96546 -13.5103,-4.8361 -0.15604,0.12936 -1.27624,2.23031 -2.48935,4.66879 -1.2131,2.43848 -2.53808,4.95526 -2.94444,5.59286 -0.40635,0.63759 -4.65171,5.76365 -9.43412,11.39127 l -8.69531,10.23204 -11.70166,8.75839 c -6.43591,4.81712 -11.73982,8.84945 -11.78649,8.96073 -0.0466,0.11128 12.91517,3.69046 28.80409,7.95372 27.79764,7.45858 29.72535,8.023 51.03206,14.94189 12.17873,3.95477 29.90681,9.85745 39.39579,13.11708 l 17.25263,5.92659 6.87079,4.18255 c 14.11703,8.59366 22.002,13.40712 22.29638,13.61101 0.16689,0.11559 0.6904,4.53634 1.16332,9.82389 0.47297,5.28754 0.86297,9.64612 0.86672,9.68575 0.004,0.0396 0.34835,0.072 0.76572,0.072 0.43426,0 2.49858,-1.17495 4.82562,-2.74662 z M 522.71129,227.57277 c 0.71819,-3.35038 0.99655,-9.77202 0.513,-11.83429 l -0.24055,-1.02584 -13.74473,-3.6457 c -11.62325,-3.08298 -41.24764,-10.34651 -48.73019,-11.94803 l -2.22072,-0.47531 -1.3849,0.7336 c -4.91121,2.60156 -10.71854,8.60706 -15.15341,15.67053 -1.74976,2.78688 -3.41558,5.91806 -3.22824,6.06802 0.0755,0.0605 2.31285,-0.94324 4.97169,-2.23051 6.01724,-2.9132 14.47456,-6.22463 19.31533,-7.56281 5.62192,-1.55411 8.60656,-1.90732 16.11691,-1.90732 5.76095,0 6.99837,0.0859 9.99447,0.69432 10.94109,2.22162 21.71307,9.18816 30.44254,19.68807 2.3718,2.85285 2.24189,2.93916 3.3488,-2.22473 z M 361.89302,197.85602 c -0.45766,-4.64109 -0.87665,-6.90784 -1.99199,-10.77678 l -1.41248,-4.89948 -2.24718,-1.64009 c -1.71478,-1.25149 -2.58845,-1.6782 -3.68743,-1.801 -0.79211,-0.0885 -8.08315,-0.53377 -16.20229,-0.98946 -10.32471,-0.57949 -15.94375,-0.7745 -18.69313,-0.64874 l -3.93103,0.1798 -2.99996,7.20076 c -1.64997,3.96042 -2.99996,7.30475 -2.99996,7.43183 0,0.12709 1.21494,-0.61707 2.69985,-1.65369 4.45392,-3.10929 8.44869,-5.35 11.99511,-6.72821 4.24606,-1.65008 6.09339,-1.71904 10.24138,-0.38223 13.42808,4.32754 24.09882,11.4823 28.75445,19.27991 0.47135,0.7894 0.90131,1.4059 0.95558,1.36998 0.0543,-0.0359 -0.1622,-2.71009 -0.48092,-5.9426 z m 94.90962,-3.03682 c 0.79125,-0.41915 1.51999,-1.03519 1.61943,-1.36897 0.4567,-1.53313 5.49395,-21.94103 5.429,-21.99491 -0.0404,-0.0334 -3.79987,0.98682 -8.35452,2.26731 l -8.2811,2.32817 -0.4154,2.77627 c -0.93357,6.23951 -3.13734,9.26089 -6.75484,9.26089 -1.89808,0 -3.46898,-0.69033 -5.51869,-2.42511 -2.40014,-2.03137 -3.77059,-4.22711 -3.81038,-6.10491 l -0.031,-1.46899 -5.90833,-0.18818 c -3.24976,-0.10356 -8.02814,-0.18819 -10.61886,-0.18819 -4.54841,0 -5.13789,-0.0759 -17.1439,-2.20766 l -12.43353,-2.20768 -1.81384,1.04309 c -2.42228,1.39299 -5.4664,2.50136 -6.87939,2.50483 -0.70022,0.002 -1.54526,-0.26909 -2.1603,-0.69232 -0.96522,-0.66415 -1.01023,-0.80858 -1.01023,-3.24229 0,-1.40095 0.11767,-2.96943 0.26143,-3.48549 l 0.26148,-0.93831 -5.31627,-2.13126 -5.31623,-2.13125 -2.82492,6.46508 c -1.55372,3.5558 -2.72987,6.54118 -2.61372,6.63417 0.11618,0.0929 3.82406,0.85293 8.23978,1.68874 4.4157,0.83582 9.56777,1.8659 11.44904,2.28906 1.88126,0.42317 8.20017,1.33953 14.04199,2.03639 10.26952,1.22501 11.51048,1.44806 37.44532,6.73006 14.75309,3.00469 26.86777,5.47442 26.92152,5.4883 0.0537,0.0139 0.74513,-0.3177 1.53642,-0.73684 z M 282.74856,178.57569 c 0.7423,-0.65769 2.40715,-1.58698 3.86961,-2.15995 2.35064,-0.92097 3.11866,-1.05432 9.12093,-1.58362 7.91922,-0.69837 13.94586,-0.7487 16.68069,-0.13931 2.01483,0.44897 34.39231,1.96299 38.50787,1.8007 l 1.97424,-0.0779 3.00729,-5.44997 c 1.654,-2.99747 3.12682,-6.05535 3.27294,-6.79528 l 0.26567,-1.34533 -1.66361,-0.47296 c -5.68514,-1.61626 -12.37737,-6.99238 -20.02446,-16.08637 l -3.78376,-4.49969 -9.25365,0.1202 c -7.28735,0.0946 -11.16631,0.30247 -18.25493,0.97802 -4.9507,0.4718 -9.34651,0.91729 -9.76847,0.98996 -0.68313,0.11764 -0.79493,0.3985 -1.02018,2.56301 l -0.25297,2.43089 -2.58033,0.32525 c -1.41919,0.1789 -2.89345,0.42496 -3.27614,0.54682 -0.55896,0.17799 -1.70651,2.9378 -5.83583,14.03491 l -5.14004,13.81336 1.31826,1.08076 c 0.72503,0.59443 1.3668,1.08078 1.42614,1.08078 0.0593,0 0.69417,-0.51945 1.41073,-1.15433 z m 352.80472,-3.88925 c 1.34465,-4.04213 1.06392,-10.33191 -0.72518,-16.24624 -2.77653,-9.17869 -9.90446,-21.05497 -15.42768,-25.70506 -2.10644,-1.77345 -2.78964,-2.1602 -4.62273,-2.61688 -4.02696,-1.00323 -7.37025,-0.477 -10.28173,1.6183 -1.76674,1.27149 -3.85449,4.03119 -4.75523,6.28573 l -0.43577,1.09067 9.04498,8.6411 c 4.97476,4.7526 9.50961,9.1901 10.07748,9.86111 0.56787,0.671 4.1602,5.8182 7.98301,11.43822 l 6.95054,10.21822 0.80853,-1.42798 c 0.4447,-0.78538 1.06737,-2.20612 1.38378,-3.15719 z m -213.6895,-1.1688 c 23.27039,-1.87863 40.82246,-5.39789 51.2617,-10.27815 1.39311,-0.65126 3.91753,-2.23983 5.60985,-3.53016 1.69235,-1.29033 4.53516,-3.24552 6.31742,-4.34484 9.16154,-5.65106 22.15693,-15.43492 28.31154,-21.31493 8.17341,-7.80876 13.41482,-14.74669 15.89644,-21.0417 0.49931,-1.26659 1.79726,-5.99911 2.88436,-10.51671 l 1.97651,-8.213837 0.23993,-9.522909 0.23994,-9.52292 -2.91483,-9.354502 c -2.61652,-8.397231 -3.11488,-9.678916 -4.86991,-12.52475 -1.07529,-1.74364 -3.05399,-4.39695 -4.39705,-5.896246 -3.01485,-3.365508 -10.14159,-9.15421 -15.37036,-12.484583 -8.19505,-5.219679 -19.72011,-10.971681 -30.18431,-15.06458 -4.84351,-1.894474 -6.17697,-2.282839 -9.86786,-2.874027 -6.34996,-1.017104 -10.41349,-1.291284 -19.13768,-1.291284 -11.43386,0 -22.21296,0.919379 -35.58839,3.035427 -8.61084,1.362269 -15.98785,2.883133 -19.46389,4.01273 -11.39501,3.703006 -24.76374,11.862435 -42.28354,25.807184 -11.13226,8.86065 -12.30912,10.258539 -21.90886,26.023592 -6.49473,10.66588 -7.24807,12.826628 -7.25523,20.809684 -0.009,9.556701 2.74363,20.920591 8.36592,34.542901 2.72768,6.60892 3.38649,7.58838 8.75156,13.01088 3.70318,3.74281 11.98536,10.36022 16.77729,13.40493 14.52672,9.23006 30.98585,15.03426 49.05094,17.2975 4.8639,0.60936 8.33393,0.57602 17.55851,-0.1687 z m 6.38532,-56.62989 c -4.64066,-0.91536 -7.86412,-3.57454 -9.13085,-7.53249 -1.44539,-4.51605 1.29276,-11.007281 6.24569,-14.806437 2.03815,-1.56338 6.24685,-3.305812 8.46919,-3.506319 0.99267,-0.08954 2.7822,0.09644 4.79826,0.498688 8.25605,1.647297 12.96483,4.66009 14.41058,9.220228 1.96394,6.1947 -2.61343,11.72548 -12.63376,15.26524 -2.67295,0.94423 -3.16978,1.02216 -6.84277,1.07334 -2.17831,0.0304 -4.57067,-0.0652 -5.31634,-0.21225 z m 7.57155,-1.69453 c 0.34385,-0.14693 1.70712,-0.65448 3.02948,-1.12791 4.9677,-1.77854 9.0069,-4.56229 10.42935,-7.18777 0.58685,-1.08323 0.70465,-1.78125 0.57845,-3.42747 -0.43811,-5.714213 -5.56102,-8.726985 -14.85229,-8.73459 -4.34895,-0.0032 -5.6784,0.339231 -7.93182,2.045158 -2.24923,1.702751 -3.70999,3.802402 -5.19251,7.463502 -0.96011,2.37104 -1.048,2.84604 -0.68813,3.71887 0.8988,2.17997 5.80564,5.35438 10.52466,6.80878 2.4522,0.75576 3.1831,0.8344 4.10281,0.44143 z m -121.55201,24.38424 c 8.44927,-0.34563 15.46071,-0.70722 15.58098,-0.80356 0.12026,-0.0963 -0.41434,-1.00917 -1.18802,-2.02856 -5.61496,-7.39814 -9.5076,-16.47768 -11.01606,-25.69487 -0.72811,-4.44896 -0.72969,-13.23044 -0.003,-17.695068 1.15164,-7.077183 3.9919,-15.072835 7.76037,-21.846272 1.5096,-2.71335 6.64139,-9.849707 14.26624,-19.838846 0.23602,-0.309201 -3.03851,-2.756618 -5.87605,-4.391824 -4.92096,-2.835833 -9.58324,-4.010917 -15.08151,-3.801152 -3.01856,0.115161 -4.09907,0.297148 -6.66323,1.122272 -7.46315,2.401581 -12.13913,6.468623 -14.70214,12.787519 -1.70119,4.194162 -2.04109,6.340116 -2.03142,12.825116 0.01,6.34673 0.48303,9.712413 2.23029,15.851264 1.42779,5.016348 1.64632,4.581993 -2.70827,5.383003 l -3.70963,0.682371 -2.64182,-1.8443 c -3.48797,-2.434999 -5.56596,-3.556504 -8.14248,-4.394518 -2.74473,-0.892735 -5.83722,-0.928433 -8.05758,-0.09304 -6.45269,2.427883 -11.45204,13.138584 -10.88618,23.322817 0.45663,8.21861 4.24188,15.12197 11.40987,20.80885 4.7377,3.75875 10.29925,6.55504 17.99636,9.04836 4.53925,1.47041 3.09726,1.43351 23.46346,0.6004 z"
       id="path3347"
       inkscape:connector-curvature="0" />
  </g>
</svg>
